<mxfile host="Electron" modified="2023-04-04T03:53:36.959Z" agent="Mozilla/5.0 (X11; Linux x86_64) AppleWebKit/537.36 (KHTML, like Gecko) draw.io/21.1.2 Chrome/106.0.5249.199 Electron/21.4.3 Safari/537.36" etag="2hFEHSd9pujguBO7K7Vp" version="21.1.2" type="device">
  <diagram name="Page-1" id="uAzkmh9ahReXTtQtv0_R">
    <mxGraphModel dx="2450" dy="992" grid="1" gridSize="10" guides="1" tooltips="1" connect="1" arrows="1" fold="1" page="1" pageScale="1" pageWidth="850" pageHeight="1100" math="1" shadow="0">
      <root>
        <mxCell id="0" />
        <mxCell id="1" parent="0" />
        <mxCell id="U8oC4eQE81mDvGG4j_8h-63" value="" style="rounded=0;whiteSpace=wrap;html=1;fillColor=none;dashed=1;" parent="1" vertex="1">
          <mxGeometry x="-100" y="3090" width="140" height="200" as="geometry" />
        </mxCell>
        <mxCell id="U8oC4eQE81mDvGG4j_8h-57" value="" style="rounded=0;whiteSpace=wrap;html=1;fillColor=none;dashed=1;" parent="1" vertex="1">
          <mxGeometry x="-420" y="2950" width="460" height="140" as="geometry" />
        </mxCell>
        <mxCell id="U8oC4eQE81mDvGG4j_8h-16" value="" style="ellipse;whiteSpace=wrap;html=1;aspect=fixed;fillColor=none;" parent="1" vertex="1">
          <mxGeometry x="200" y="1520" width="400" height="400" as="geometry" />
        </mxCell>
        <mxCell id="U8oC4eQE81mDvGG4j_8h-14" value="" style="ellipse;whiteSpace=wrap;html=1;aspect=fixed;fillColor=none;" parent="1" vertex="1">
          <mxGeometry x="240" y="1560" width="320" height="320" as="geometry" />
        </mxCell>
        <mxCell id="U8oC4eQE81mDvGG4j_8h-10" value="" style="ellipse;whiteSpace=wrap;html=1;aspect=fixed;fillColor=none;" parent="1" vertex="1">
          <mxGeometry x="280" y="1600" width="240" height="240" as="geometry" />
        </mxCell>
        <mxCell id="vK_7Ngb_AJFYtrCaZxr3-2" value="" style="shape=actor;whiteSpace=wrap;html=1;" parent="1" vertex="1">
          <mxGeometry x="115" y="240" width="50" height="70" as="geometry" />
        </mxCell>
        <mxCell id="vK_7Ngb_AJFYtrCaZxr3-3" value="Programmer" style="text;html=1;strokeColor=none;fillColor=none;align=center;verticalAlign=middle;whiteSpace=wrap;rounded=0;" parent="1" vertex="1">
          <mxGeometry x="110" y="310" width="60" height="30" as="geometry" />
        </mxCell>
        <mxCell id="vK_7Ngb_AJFYtrCaZxr3-4" value="" style="endArrow=none;html=1;rounded=0;" parent="1" edge="1">
          <mxGeometry width="50" height="50" relative="1" as="geometry">
            <mxPoint x="160" y="440" as="sourcePoint" />
            <mxPoint x="280" y="160" as="targetPoint" />
          </mxGeometry>
        </mxCell>
        <mxCell id="vK_7Ngb_AJFYtrCaZxr3-5" value="" style="endArrow=none;html=1;rounded=0;" parent="1" edge="1">
          <mxGeometry width="50" height="50" relative="1" as="geometry">
            <mxPoint x="520" y="440" as="sourcePoint" />
            <mxPoint x="640" y="160" as="targetPoint" />
          </mxGeometry>
        </mxCell>
        <mxCell id="vK_7Ngb_AJFYtrCaZxr3-7" value="" style="shape=parallelogram;perimeter=parallelogramPerimeter;whiteSpace=wrap;html=1;fixedSize=1;rotation=-180;" parent="1" vertex="1">
          <mxGeometry x="640" y="290" width="120" height="30" as="geometry" />
        </mxCell>
        <mxCell id="vK_7Ngb_AJFYtrCaZxr3-9" value="" style="rounded=0;whiteSpace=wrap;html=1;" parent="1" vertex="1">
          <mxGeometry x="660" y="240" width="100" height="50" as="geometry" />
        </mxCell>
        <mxCell id="vK_7Ngb_AJFYtrCaZxr3-10" value="Computer" style="text;html=1;strokeColor=none;fillColor=none;align=center;verticalAlign=middle;whiteSpace=wrap;rounded=0;" parent="1" vertex="1">
          <mxGeometry x="670" y="320" width="60" height="30" as="geometry" />
        </mxCell>
        <mxCell id="vK_7Ngb_AJFYtrCaZxr3-11" value="Programming Language" style="rounded=0;whiteSpace=wrap;html=1;" parent="1" vertex="1">
          <mxGeometry x="180" y="250" width="450" height="60" as="geometry" />
        </mxCell>
        <mxCell id="vK_7Ngb_AJFYtrCaZxr3-13" value="Abstract&lt;br&gt;Machine" style="ellipse;whiteSpace=wrap;html=1;aspect=fixed;" parent="1" vertex="1">
          <mxGeometry x="290" y="320" width="60" height="60" as="geometry" />
        </mxCell>
        <mxCell id="vK_7Ngb_AJFYtrCaZxr3-14" value="Virtural&lt;br&gt;Machine" style="ellipse;whiteSpace=wrap;html=1;aspect=fixed;" parent="1" vertex="1">
          <mxGeometry x="460" y="320" width="60" height="60" as="geometry" />
        </mxCell>
        <mxCell id="vK_7Ngb_AJFYtrCaZxr3-15" value="`\lambda`&lt;br&gt;logic" style="rounded=0;whiteSpace=wrap;html=1;" parent="1" vertex="1">
          <mxGeometry x="220" y="320" width="50" height="60" as="geometry" />
        </mxCell>
        <mxCell id="jz7nRDvIJqr95saMROml-4" value="requirements" style="edgeStyle=orthogonalEdgeStyle;rounded=0;orthogonalLoop=1;jettySize=auto;html=1;" parent="1" source="jz7nRDvIJqr95saMROml-1" target="jz7nRDvIJqr95saMROml-3" edge="1">
          <mxGeometry relative="1" as="geometry" />
        </mxCell>
        <mxCell id="jz7nRDvIJqr95saMROml-1" value="Programmer" style="ellipse;whiteSpace=wrap;html=1;" parent="1" vertex="1">
          <mxGeometry x="80" y="480" width="120" height="60" as="geometry" />
        </mxCell>
        <mxCell id="jz7nRDvIJqr95saMROml-3" value="Programming Language" style="rounded=0;whiteSpace=wrap;html=1;" parent="1" vertex="1">
          <mxGeometry x="80" y="590" width="120" height="60" as="geometry" />
        </mxCell>
        <mxCell id="jz7nRDvIJqr95saMROml-6" value="constraints" style="edgeStyle=orthogonalEdgeStyle;rounded=0;orthogonalLoop=1;jettySize=auto;html=1;" parent="1" source="jz7nRDvIJqr95saMROml-5" target="jz7nRDvIJqr95saMROml-3" edge="1">
          <mxGeometry relative="1" as="geometry" />
        </mxCell>
        <mxCell id="jz7nRDvIJqr95saMROml-5" value="Computer Architecture" style="ellipse;whiteSpace=wrap;html=1;" parent="1" vertex="1">
          <mxGeometry x="80" y="700" width="120" height="60" as="geometry" />
        </mxCell>
        <mxCell id="jz7nRDvIJqr95saMROml-7" value=".&lt;br&gt;.&lt;br&gt;.&lt;br&gt;.&lt;br&gt;Pascal&lt;br&gt;.&lt;br&gt;.&lt;br&gt;.&lt;br&gt;.&lt;br&gt;C&lt;br&gt;.&lt;br&gt;.&lt;br&gt;.&lt;br&gt;Assembly Language&lt;br&gt;.&lt;br&gt;.&lt;br&gt;.&lt;br&gt;" style="text;html=1;strokeColor=none;fillColor=none;align=center;verticalAlign=middle;whiteSpace=wrap;rounded=0;" parent="1" vertex="1">
          <mxGeometry x="240" y="480" width="80" height="280" as="geometry" />
        </mxCell>
        <mxCell id="jz7nRDvIJqr95saMROml-8" value="" style="shape=flexArrow;endArrow=classic;html=1;rounded=0;" parent="1" edge="1">
          <mxGeometry width="50" height="50" relative="1" as="geometry">
            <mxPoint x="350" y="760" as="sourcePoint" />
            <mxPoint x="350" y="480" as="targetPoint" />
          </mxGeometry>
        </mxCell>
        <mxCell id="jz7nRDvIJqr95saMROml-10" value="추상화 수준이 높다" style="endArrow=classic;html=1;rounded=0;" parent="1" edge="1">
          <mxGeometry width="50" height="50" relative="1" as="geometry">
            <mxPoint x="404.67" y="540" as="sourcePoint" />
            <mxPoint x="404.67" y="480" as="targetPoint" />
          </mxGeometry>
        </mxCell>
        <mxCell id="jz7nRDvIJqr95saMROml-11" value="기계 친화적" style="endArrow=classic;html=1;rounded=0;" parent="1" edge="1">
          <mxGeometry width="50" height="50" relative="1" as="geometry">
            <mxPoint x="404.67" y="700" as="sourcePoint" />
            <mxPoint x="404.67" y="760" as="targetPoint" />
          </mxGeometry>
        </mxCell>
        <mxCell id="jz7nRDvIJqr95saMROml-12" value="" style="rounded=0;whiteSpace=wrap;html=1;" parent="1" vertex="1">
          <mxGeometry x="80" y="800" width="80" height="40" as="geometry" />
        </mxCell>
        <mxCell id="jz7nRDvIJqr95saMROml-13" value="Expressiveness" style="rounded=0;whiteSpace=wrap;html=1;fillColor=#CCFFCC;" parent="1" vertex="1">
          <mxGeometry x="160" y="800" width="120" height="40" as="geometry" />
        </mxCell>
        <mxCell id="jz7nRDvIJqr95saMROml-14" value="Maintainability" style="rounded=0;whiteSpace=wrap;html=1;fillColor=#CCFFCC;" parent="1" vertex="1">
          <mxGeometry x="280" y="800" width="120" height="40" as="geometry" />
        </mxCell>
        <mxCell id="jz7nRDvIJqr95saMROml-15" value="Executability" style="rounded=0;whiteSpace=wrap;html=1;fillColor=#CCFFCC;" parent="1" vertex="1">
          <mxGeometry x="400" y="800" width="120" height="40" as="geometry" />
        </mxCell>
        <mxCell id="jz7nRDvIJqr95saMROml-16" value="Writability" style="rounded=0;whiteSpace=wrap;html=1;fillColor=#FFCCE6;" parent="1" vertex="1">
          <mxGeometry x="80" y="840" width="80" height="40" as="geometry" />
        </mxCell>
        <mxCell id="jz7nRDvIJqr95saMROml-17" value="Readability" style="rounded=0;whiteSpace=wrap;html=1;fillColor=#FFCCE6;" parent="1" vertex="1">
          <mxGeometry x="80" y="880" width="80" height="40" as="geometry" />
        </mxCell>
        <mxCell id="jz7nRDvIJqr95saMROml-18" value="Efficiency" style="rounded=0;whiteSpace=wrap;html=1;fillColor=#FFCCE6;" parent="1" vertex="1">
          <mxGeometry x="80" y="920" width="80" height="40" as="geometry" />
        </mxCell>
        <mxCell id="jz7nRDvIJqr95saMROml-19" value="Reliability" style="rounded=0;whiteSpace=wrap;html=1;fillColor=#FFCCE6;" parent="1" vertex="1">
          <mxGeometry x="80" y="960" width="80" height="40" as="geometry" />
        </mxCell>
        <mxCell id="jz7nRDvIJqr95saMROml-20" value="Portability" style="rounded=0;whiteSpace=wrap;html=1;fillColor=#FFCCE6;" parent="1" vertex="1">
          <mxGeometry x="80" y="1000" width="80" height="40" as="geometry" />
        </mxCell>
        <mxCell id="jz7nRDvIJqr95saMROml-21" value="O" style="rounded=0;whiteSpace=wrap;html=1;fillColor=#FFFFFF;" parent="1" vertex="1">
          <mxGeometry x="160" y="840" width="120" height="40" as="geometry" />
        </mxCell>
        <mxCell id="jz7nRDvIJqr95saMROml-22" value="&lt;span style=&quot;color: rgb(0, 0, 0); font-family: Helvetica; font-size: 12px; font-style: normal; font-variant-ligatures: normal; font-variant-caps: normal; font-weight: 400; letter-spacing: normal; orphans: 2; text-align: center; text-indent: 0px; text-transform: none; widows: 2; word-spacing: 0px; -webkit-text-stroke-width: 0px; background-color: rgb(251, 251, 251); text-decoration-thickness: initial; text-decoration-style: initial; text-decoration-color: initial; float: none; display: inline !important;&quot;&gt;O&lt;/span&gt;" style="rounded=0;whiteSpace=wrap;html=1;fillColor=#FFFFFF;" parent="1" vertex="1">
          <mxGeometry x="280" y="840" width="120" height="40" as="geometry" />
        </mxCell>
        <mxCell id="jz7nRDvIJqr95saMROml-23" value="" style="rounded=0;whiteSpace=wrap;html=1;fillColor=#FFFFFF;" parent="1" vertex="1">
          <mxGeometry x="400" y="840" width="120" height="40" as="geometry" />
        </mxCell>
        <mxCell id="jz7nRDvIJqr95saMROml-24" value="" style="rounded=0;whiteSpace=wrap;html=1;fillColor=#FFFFFF;" parent="1" vertex="1">
          <mxGeometry x="160" y="880" width="120" height="40" as="geometry" />
        </mxCell>
        <mxCell id="jz7nRDvIJqr95saMROml-25" value="&lt;span style=&quot;color: rgb(0, 0, 0); font-family: Helvetica; font-size: 12px; font-style: normal; font-variant-ligatures: normal; font-variant-caps: normal; font-weight: 400; letter-spacing: normal; orphans: 2; text-align: center; text-indent: 0px; text-transform: none; widows: 2; word-spacing: 0px; -webkit-text-stroke-width: 0px; background-color: rgb(251, 251, 251); text-decoration-thickness: initial; text-decoration-style: initial; text-decoration-color: initial; float: none; display: inline !important;&quot;&gt;O&lt;/span&gt;" style="rounded=0;whiteSpace=wrap;html=1;fillColor=#FFFFFF;" parent="1" vertex="1">
          <mxGeometry x="280" y="880" width="120" height="40" as="geometry" />
        </mxCell>
        <mxCell id="jz7nRDvIJqr95saMROml-26" value="" style="rounded=0;whiteSpace=wrap;html=1;fillColor=#FFFFFF;" parent="1" vertex="1">
          <mxGeometry x="400" y="880" width="120" height="40" as="geometry" />
        </mxCell>
        <mxCell id="jz7nRDvIJqr95saMROml-27" value="" style="rounded=0;whiteSpace=wrap;html=1;fillColor=#FFFFFF;" parent="1" vertex="1">
          <mxGeometry x="160" y="920" width="120" height="40" as="geometry" />
        </mxCell>
        <mxCell id="jz7nRDvIJqr95saMROml-28" value="" style="rounded=0;whiteSpace=wrap;html=1;fillColor=#FFFFFF;" parent="1" vertex="1">
          <mxGeometry x="280" y="920" width="120" height="40" as="geometry" />
        </mxCell>
        <mxCell id="jz7nRDvIJqr95saMROml-29" value="&lt;span style=&quot;color: rgb(0, 0, 0); font-family: Helvetica; font-size: 12px; font-style: normal; font-variant-ligatures: normal; font-variant-caps: normal; font-weight: 400; letter-spacing: normal; orphans: 2; text-align: center; text-indent: 0px; text-transform: none; widows: 2; word-spacing: 0px; -webkit-text-stroke-width: 0px; background-color: rgb(251, 251, 251); text-decoration-thickness: initial; text-decoration-style: initial; text-decoration-color: initial; float: none; display: inline !important;&quot;&gt;O&lt;/span&gt;" style="rounded=0;whiteSpace=wrap;html=1;fillColor=#FFFFFF;" parent="1" vertex="1">
          <mxGeometry x="400" y="920" width="120" height="40" as="geometry" />
        </mxCell>
        <mxCell id="jz7nRDvIJqr95saMROml-30" value="" style="rounded=0;whiteSpace=wrap;html=1;fillColor=#FFFFFF;" parent="1" vertex="1">
          <mxGeometry x="160" y="960" width="120" height="40" as="geometry" />
        </mxCell>
        <mxCell id="jz7nRDvIJqr95saMROml-31" value="" style="rounded=0;whiteSpace=wrap;html=1;fillColor=#FFFFFF;" parent="1" vertex="1">
          <mxGeometry x="280" y="960" width="120" height="40" as="geometry" />
        </mxCell>
        <mxCell id="jz7nRDvIJqr95saMROml-32" value="&lt;span style=&quot;color: rgb(0, 0, 0); font-family: Helvetica; font-size: 12px; font-style: normal; font-variant-ligatures: normal; font-variant-caps: normal; font-weight: 400; letter-spacing: normal; orphans: 2; text-align: center; text-indent: 0px; text-transform: none; widows: 2; word-spacing: 0px; -webkit-text-stroke-width: 0px; background-color: rgb(251, 251, 251); text-decoration-thickness: initial; text-decoration-style: initial; text-decoration-color: initial; float: none; display: inline !important;&quot;&gt;O&lt;/span&gt;" style="rounded=0;whiteSpace=wrap;html=1;fillColor=#FFFFFF;" parent="1" vertex="1">
          <mxGeometry x="400" y="960" width="120" height="40" as="geometry" />
        </mxCell>
        <mxCell id="jz7nRDvIJqr95saMROml-33" value="" style="rounded=0;whiteSpace=wrap;html=1;fillColor=#FFFFFF;" parent="1" vertex="1">
          <mxGeometry x="160" y="1000" width="120" height="40" as="geometry" />
        </mxCell>
        <mxCell id="jz7nRDvIJqr95saMROml-34" value="&lt;span style=&quot;color: rgb(0, 0, 0); font-family: Helvetica; font-size: 12px; font-style: normal; font-variant-ligatures: normal; font-variant-caps: normal; font-weight: 400; letter-spacing: normal; orphans: 2; text-align: center; text-indent: 0px; text-transform: none; widows: 2; word-spacing: 0px; -webkit-text-stroke-width: 0px; background-color: rgb(251, 251, 251); text-decoration-thickness: initial; text-decoration-style: initial; text-decoration-color: initial; float: none; display: inline !important;&quot;&gt;O&lt;/span&gt;" style="rounded=0;whiteSpace=wrap;html=1;fillColor=#FFFFFF;" parent="1" vertex="1">
          <mxGeometry x="280" y="1000" width="120" height="40" as="geometry" />
        </mxCell>
        <mxCell id="jz7nRDvIJqr95saMROml-35" value="&lt;span style=&quot;color: rgb(0, 0, 0); font-family: Helvetica; font-size: 12px; font-style: normal; font-variant-ligatures: normal; font-variant-caps: normal; font-weight: 400; letter-spacing: normal; orphans: 2; text-align: center; text-indent: 0px; text-transform: none; widows: 2; word-spacing: 0px; -webkit-text-stroke-width: 0px; background-color: rgb(251, 251, 251); text-decoration-thickness: initial; text-decoration-style: initial; text-decoration-color: initial; float: none; display: inline !important;&quot;&gt;O&lt;/span&gt;" style="rounded=0;whiteSpace=wrap;html=1;fillColor=#FFFFFF;" parent="1" vertex="1">
          <mxGeometry x="400" y="1000" width="120" height="40" as="geometry" />
        </mxCell>
        <mxCell id="U8oC4eQE81mDvGG4j_8h-1" value="" style="endArrow=block;html=1;rounded=0;startArrow=none;startFill=0;endFill=1;" parent="1" edge="1">
          <mxGeometry width="50" height="50" relative="1" as="geometry">
            <mxPoint x="280" y="1380" as="sourcePoint" />
            <mxPoint x="560" y="1380" as="targetPoint" />
          </mxGeometry>
        </mxCell>
        <mxCell id="U8oC4eQE81mDvGG4j_8h-2" value="" style="endArrow=none;html=1;rounded=0;startArrow=block;startFill=1;" parent="1" edge="1">
          <mxGeometry width="50" height="50" relative="1" as="geometry">
            <mxPoint x="320" y="1160" as="sourcePoint" />
            <mxPoint x="320" y="1400" as="targetPoint" />
          </mxGeometry>
        </mxCell>
        <mxCell id="U8oC4eQE81mDvGG4j_8h-3" value="기능 X" style="text;html=1;strokeColor=none;fillColor=none;align=center;verticalAlign=middle;whiteSpace=wrap;rounded=0;" parent="1" vertex="1">
          <mxGeometry x="520" y="1380" width="80" height="30" as="geometry" />
        </mxCell>
        <mxCell id="U8oC4eQE81mDvGG4j_8h-4" value="기능 Y" style="text;html=1;strokeColor=none;fillColor=none;align=center;verticalAlign=middle;whiteSpace=wrap;rounded=0;" parent="1" vertex="1">
          <mxGeometry x="250" y="1160" width="80" height="30" as="geometry" />
        </mxCell>
        <mxCell id="U8oC4eQE81mDvGG4j_8h-5" value="" style="endArrow=none;dashed=1;html=1;dashPattern=1 3;strokeWidth=2;rounded=0;" parent="1" edge="1">
          <mxGeometry width="50" height="50" relative="1" as="geometry">
            <mxPoint x="320" y="1240" as="sourcePoint" />
            <mxPoint x="440" y="1240" as="targetPoint" />
          </mxGeometry>
        </mxCell>
        <mxCell id="U8oC4eQE81mDvGG4j_8h-6" value="" style="endArrow=none;dashed=1;html=1;dashPattern=1 3;strokeWidth=2;rounded=0;startArrow=oval;startFill=1;" parent="1" edge="1">
          <mxGeometry width="50" height="50" relative="1" as="geometry">
            <mxPoint x="440" y="1240" as="sourcePoint" />
            <mxPoint x="440" y="1380" as="targetPoint" />
          </mxGeometry>
        </mxCell>
        <mxCell id="U8oC4eQE81mDvGG4j_8h-7" value="조합 기능 (X, Y)" style="text;html=1;strokeColor=none;fillColor=none;align=center;verticalAlign=middle;whiteSpace=wrap;rounded=0;" parent="1" vertex="1">
          <mxGeometry x="440" y="1210" width="60" height="30" as="geometry" />
        </mxCell>
        <mxCell id="U8oC4eQE81mDvGG4j_8h-9" value="" style="ellipse;whiteSpace=wrap;html=1;aspect=fixed;fillColor=none;" parent="1" vertex="1">
          <mxGeometry x="320" y="1640" width="160" height="160" as="geometry" />
        </mxCell>
        <mxCell id="U8oC4eQE81mDvGG4j_8h-8" value="" style="ellipse;whiteSpace=wrap;html=1;aspect=fixed;fillColor=none;" parent="1" vertex="1">
          <mxGeometry x="360" y="1680" width="80" height="80" as="geometry" />
        </mxCell>
        <mxCell id="U8oC4eQE81mDvGG4j_8h-11" value="HW" style="text;html=1;strokeColor=none;fillColor=none;align=center;verticalAlign=middle;whiteSpace=wrap;rounded=0;" parent="1" vertex="1">
          <mxGeometry x="370" y="1660" width="60" height="20" as="geometry" />
        </mxCell>
        <mxCell id="U8oC4eQE81mDvGG4j_8h-12" value="BIOS" style="text;html=1;strokeColor=none;fillColor=none;align=center;verticalAlign=middle;whiteSpace=wrap;rounded=0;" parent="1" vertex="1">
          <mxGeometry x="370" y="1620" width="60" height="20" as="geometry" />
        </mxCell>
        <mxCell id="U8oC4eQE81mDvGG4j_8h-13" value="OS" style="text;html=1;strokeColor=none;fillColor=none;align=center;verticalAlign=middle;whiteSpace=wrap;rounded=0;" parent="1" vertex="1">
          <mxGeometry x="370" y="1580" width="60" height="20" as="geometry" />
        </mxCell>
        <mxCell id="U8oC4eQE81mDvGG4j_8h-15" value="Shell" style="text;html=1;strokeColor=none;fillColor=none;align=center;verticalAlign=middle;whiteSpace=wrap;rounded=0;" parent="1" vertex="1">
          <mxGeometry x="370" y="1540" width="60" height="20" as="geometry" />
        </mxCell>
        <mxCell id="U8oC4eQE81mDvGG4j_8h-17" value="C" style="text;html=1;strokeColor=none;fillColor=none;align=center;verticalAlign=middle;whiteSpace=wrap;rounded=0;" parent="1" vertex="1">
          <mxGeometry x="370" y="1500" width="60" height="20" as="geometry" />
        </mxCell>
        <mxCell id="U8oC4eQE81mDvGG4j_8h-18" value="" style="endArrow=none;html=1;rounded=0;entryX=1;entryY=0;entryDx=0;entryDy=0;exitX=1;exitY=0;exitDx=0;exitDy=0;" parent="1" source="U8oC4eQE81mDvGG4j_8h-14" target="U8oC4eQE81mDvGG4j_8h-16" edge="1">
          <mxGeometry width="50" height="50" relative="1" as="geometry">
            <mxPoint x="520" y="1615" as="sourcePoint" />
            <mxPoint x="570" y="1565" as="targetPoint" />
          </mxGeometry>
        </mxCell>
        <mxCell id="U8oC4eQE81mDvGG4j_8h-20" value="" style="endArrow=none;html=1;rounded=0;entryX=1;entryY=0.5;entryDx=0;entryDy=0;exitX=1;exitY=0.5;exitDx=0;exitDy=0;" parent="1" source="U8oC4eQE81mDvGG4j_8h-14" target="U8oC4eQE81mDvGG4j_8h-16" edge="1">
          <mxGeometry width="50" height="50" relative="1" as="geometry">
            <mxPoint x="523.1370849898474" y="1616.8629150101524" as="sourcePoint" />
            <mxPoint x="551.4213562373095" y="1588.5786437626907" as="targetPoint" />
          </mxGeometry>
        </mxCell>
        <mxCell id="U8oC4eQE81mDvGG4j_8h-21" value="" style="endArrow=none;html=1;rounded=0;entryX=1;entryY=1;entryDx=0;entryDy=0;exitX=1;exitY=1;exitDx=0;exitDy=0;" parent="1" source="U8oC4eQE81mDvGG4j_8h-16" target="U8oC4eQE81mDvGG4j_8h-14" edge="1">
          <mxGeometry width="50" height="50" relative="1" as="geometry">
            <mxPoint x="570" y="1730" as="sourcePoint" />
            <mxPoint x="610" y="1730" as="targetPoint" />
          </mxGeometry>
        </mxCell>
        <mxCell id="U8oC4eQE81mDvGG4j_8h-22" value="" style="endArrow=none;html=1;rounded=0;entryX=0.5;entryY=1;entryDx=0;entryDy=0;exitX=0.5;exitY=1;exitDx=0;exitDy=0;" parent="1" source="U8oC4eQE81mDvGG4j_8h-14" target="U8oC4eQE81mDvGG4j_8h-16" edge="1">
          <mxGeometry width="50" height="50" relative="1" as="geometry">
            <mxPoint x="580" y="1740" as="sourcePoint" />
            <mxPoint x="620" y="1740" as="targetPoint" />
          </mxGeometry>
        </mxCell>
        <mxCell id="U8oC4eQE81mDvGG4j_8h-23" value="" style="endArrow=none;html=1;rounded=0;entryX=0;entryY=1;entryDx=0;entryDy=0;exitX=0;exitY=1;exitDx=0;exitDy=0;" parent="1" source="U8oC4eQE81mDvGG4j_8h-16" target="U8oC4eQE81mDvGG4j_8h-14" edge="1">
          <mxGeometry width="50" height="50" relative="1" as="geometry">
            <mxPoint x="590" y="1750" as="sourcePoint" />
            <mxPoint x="630" y="1750" as="targetPoint" />
          </mxGeometry>
        </mxCell>
        <mxCell id="U8oC4eQE81mDvGG4j_8h-24" value="" style="endArrow=none;html=1;rounded=0;entryX=0;entryY=0.5;entryDx=0;entryDy=0;exitX=0;exitY=0.5;exitDx=0;exitDy=0;" parent="1" source="U8oC4eQE81mDvGG4j_8h-14" target="U8oC4eQE81mDvGG4j_8h-16" edge="1">
          <mxGeometry width="50" height="50" relative="1" as="geometry">
            <mxPoint x="600" y="1760" as="sourcePoint" />
            <mxPoint x="640" y="1760" as="targetPoint" />
          </mxGeometry>
        </mxCell>
        <mxCell id="U8oC4eQE81mDvGG4j_8h-25" value="" style="endArrow=none;html=1;rounded=0;entryX=0;entryY=0;entryDx=0;entryDy=0;exitX=0;exitY=0;exitDx=0;exitDy=0;" parent="1" source="U8oC4eQE81mDvGG4j_8h-14" target="U8oC4eQE81mDvGG4j_8h-16" edge="1">
          <mxGeometry width="50" height="50" relative="1" as="geometry">
            <mxPoint x="610" y="1770" as="sourcePoint" />
            <mxPoint x="650" y="1770" as="targetPoint" />
          </mxGeometry>
        </mxCell>
        <mxCell id="U8oC4eQE81mDvGG4j_8h-27" value="C++" style="text;html=1;strokeColor=none;fillColor=none;align=center;verticalAlign=middle;whiteSpace=wrap;rounded=0;" parent="1" vertex="1">
          <mxGeometry x="570" y="1630" width="60" height="20" as="geometry" />
        </mxCell>
        <mxCell id="U8oC4eQE81mDvGG4j_8h-28" value="Java" style="text;html=1;strokeColor=none;fillColor=none;align=center;verticalAlign=middle;whiteSpace=wrap;rounded=0;" parent="1" vertex="1">
          <mxGeometry x="570" y="1790" width="60" height="20" as="geometry" />
        </mxCell>
        <mxCell id="U8oC4eQE81mDvGG4j_8h-29" value="Python" style="text;html=1;strokeColor=none;fillColor=none;align=center;verticalAlign=middle;whiteSpace=wrap;rounded=0;" parent="1" vertex="1">
          <mxGeometry x="460" y="1910" width="60" height="20" as="geometry" />
        </mxCell>
        <mxCell id="U8oC4eQE81mDvGG4j_8h-30" value="Rust" style="text;html=1;strokeColor=none;fillColor=none;align=center;verticalAlign=middle;whiteSpace=wrap;rounded=0;" parent="1" vertex="1">
          <mxGeometry x="280" y="1910" width="60" height="20" as="geometry" />
        </mxCell>
        <mxCell id="U8oC4eQE81mDvGG4j_8h-31" value="Haskell" style="text;html=1;strokeColor=none;fillColor=none;align=center;verticalAlign=middle;whiteSpace=wrap;rounded=0;" parent="1" vertex="1">
          <mxGeometry x="160" y="1790" width="60" height="20" as="geometry" />
        </mxCell>
        <mxCell id="U8oC4eQE81mDvGG4j_8h-32" value="Pascal" style="text;html=1;strokeColor=none;fillColor=none;align=center;verticalAlign=middle;whiteSpace=wrap;rounded=0;" parent="1" vertex="1">
          <mxGeometry x="160" y="1630" width="60" height="20" as="geometry" />
        </mxCell>
        <mxCell id="U8oC4eQE81mDvGG4j_8h-36" value="Writing" style="edgeStyle=orthogonalEdgeStyle;rounded=0;orthogonalLoop=1;jettySize=auto;html=1;startArrow=none;startFill=0;endArrow=block;endFill=1;" parent="1" source="U8oC4eQE81mDvGG4j_8h-34" target="U8oC4eQE81mDvGG4j_8h-35" edge="1">
          <mxGeometry relative="1" as="geometry" />
        </mxCell>
        <mxCell id="U8oC4eQE81mDvGG4j_8h-34" value="Programmer" style="ellipse;whiteSpace=wrap;html=1;fillColor=none;" parent="1" vertex="1">
          <mxGeometry x="80" y="2280" width="120" height="60" as="geometry" />
        </mxCell>
        <mxCell id="U8oC4eQE81mDvGG4j_8h-38" value="Execution" style="edgeStyle=orthogonalEdgeStyle;rounded=0;orthogonalLoop=1;jettySize=auto;html=1;startArrow=none;startFill=0;endArrow=block;endFill=1;" parent="1" source="U8oC4eQE81mDvGG4j_8h-35" target="U8oC4eQE81mDvGG4j_8h-37" edge="1">
          <mxGeometry relative="1" as="geometry" />
        </mxCell>
        <mxCell id="U8oC4eQE81mDvGG4j_8h-39" style="edgeStyle=orthogonalEdgeStyle;rounded=0;orthogonalLoop=1;jettySize=auto;html=1;exitX=0;exitY=1;exitDx=0;exitDy=0;startArrow=none;startFill=0;endArrow=none;endFill=0;dashed=1;" parent="1" source="U8oC4eQE81mDvGG4j_8h-35" edge="1">
          <mxGeometry relative="1" as="geometry">
            <mxPoint x="280" y="2540" as="targetPoint" />
          </mxGeometry>
        </mxCell>
        <mxCell id="U8oC4eQE81mDvGG4j_8h-41" style="edgeStyle=orthogonalEdgeStyle;rounded=0;orthogonalLoop=1;jettySize=auto;html=1;exitX=1;exitY=1;exitDx=0;exitDy=0;dashed=1;startArrow=none;startFill=0;endArrow=none;endFill=0;" parent="1" source="U8oC4eQE81mDvGG4j_8h-35" edge="1">
          <mxGeometry relative="1" as="geometry">
            <mxPoint x="400" y="2440" as="targetPoint" />
          </mxGeometry>
        </mxCell>
        <mxCell id="U8oC4eQE81mDvGG4j_8h-35" value="PROGRAM" style="rounded=0;whiteSpace=wrap;html=1;fillColor=none;" parent="1" vertex="1">
          <mxGeometry x="280" y="2280" width="120" height="60" as="geometry" />
        </mxCell>
        <mxCell id="U8oC4eQE81mDvGG4j_8h-44" style="edgeStyle=orthogonalEdgeStyle;rounded=0;orthogonalLoop=1;jettySize=auto;html=1;exitX=0.5;exitY=1;exitDx=0;exitDy=0;startArrow=none;startFill=0;endArrow=none;endFill=0;dashed=1;" parent="1" source="U8oC4eQE81mDvGG4j_8h-37" edge="1">
          <mxGeometry relative="1" as="geometry">
            <mxPoint x="540" y="2540" as="targetPoint" />
          </mxGeometry>
        </mxCell>
        <mxCell id="U8oC4eQE81mDvGG4j_8h-37" value="Machine&lt;br&gt;(HW)" style="ellipse;whiteSpace=wrap;html=1;fillColor=none;" parent="1" vertex="1">
          <mxGeometry x="480" y="2280" width="120" height="60" as="geometry" />
        </mxCell>
        <mxCell id="U8oC4eQE81mDvGG4j_8h-40" value="source&lt;br&gt;program" style="ellipse;whiteSpace=wrap;html=1;fillColor=#FFCCE6;" parent="1" vertex="1">
          <mxGeometry x="220" y="2450" width="120" height="60" as="geometry" />
        </mxCell>
        <mxCell id="U8oC4eQE81mDvGG4j_8h-42" value="target&lt;br&gt;program" style="ellipse;whiteSpace=wrap;html=1;fillColor=#CCFFCC;" parent="1" vertex="1">
          <mxGeometry x="340" y="2360" width="120" height="60" as="geometry" />
        </mxCell>
        <mxCell id="U8oC4eQE81mDvGG4j_8h-43" value="" style="shape=flexArrow;endArrow=classic;html=1;rounded=0;" parent="1" edge="1">
          <mxGeometry width="50" height="50" relative="1" as="geometry">
            <mxPoint x="320" y="2450" as="sourcePoint" />
            <mxPoint x="350" y="2420" as="targetPoint" />
          </mxGeometry>
        </mxCell>
        <mxCell id="U8oC4eQE81mDvGG4j_8h-45" value="specific&lt;br&gt;actions" style="ellipse;whiteSpace=wrap;html=1;fillColor=#CCFFCC;" parent="1" vertex="1">
          <mxGeometry x="480" y="2450" width="120" height="60" as="geometry" />
        </mxCell>
        <mxCell id="U8oC4eQE81mDvGG4j_8h-46" value="" style="shape=flexArrow;endArrow=classic;html=1;rounded=0;" parent="1" edge="1">
          <mxGeometry width="50" height="50" relative="1" as="geometry">
            <mxPoint x="350" y="2479.52" as="sourcePoint" />
            <mxPoint x="470" y="2480" as="targetPoint" />
          </mxGeometry>
        </mxCell>
        <mxCell id="U8oC4eQE81mDvGG4j_8h-48" value="컴파일러" style="text;html=1;strokeColor=none;fillColor=none;align=center;verticalAlign=middle;whiteSpace=wrap;rounded=0;" parent="1" vertex="1">
          <mxGeometry x="280" y="2390" width="60" height="30" as="geometry" />
        </mxCell>
        <mxCell id="U8oC4eQE81mDvGG4j_8h-49" value="인터프리터" style="text;html=1;strokeColor=none;fillColor=none;align=center;verticalAlign=middle;whiteSpace=wrap;rounded=0;" parent="1" vertex="1">
          <mxGeometry x="375" y="2450" width="60" height="30" as="geometry" />
        </mxCell>
        <mxCell id="U8oC4eQE81mDvGG4j_8h-54" value="" style="edgeStyle=orthogonalEdgeStyle;rounded=0;orthogonalLoop=1;jettySize=auto;html=1;startArrow=none;startFill=0;endArrow=block;endFill=1;" parent="1" source="U8oC4eQE81mDvGG4j_8h-51" target="U8oC4eQE81mDvGG4j_8h-52" edge="1">
          <mxGeometry relative="1" as="geometry" />
        </mxCell>
        <mxCell id="U8oC4eQE81mDvGG4j_8h-51" value="source&lt;br&gt;program" style="ellipse;whiteSpace=wrap;html=1;fillColor=#FFCCE6;" parent="1" vertex="1">
          <mxGeometry x="-410" y="2990" width="120" height="60" as="geometry" />
        </mxCell>
        <mxCell id="U8oC4eQE81mDvGG4j_8h-56" value="" style="edgeStyle=orthogonalEdgeStyle;rounded=0;orthogonalLoop=1;jettySize=auto;html=1;startArrow=none;startFill=0;endArrow=block;endFill=1;" parent="1" source="U8oC4eQE81mDvGG4j_8h-52" target="U8oC4eQE81mDvGG4j_8h-55" edge="1">
          <mxGeometry relative="1" as="geometry" />
        </mxCell>
        <mxCell id="U8oC4eQE81mDvGG4j_8h-52" value="small&lt;br&gt;COMPILER" style="rounded=0;whiteSpace=wrap;html=1;fillColor=#FFFFCC;" parent="1" vertex="1">
          <mxGeometry x="-250" y="2990" width="120" height="60" as="geometry" />
        </mxCell>
        <mxCell id="U8oC4eQE81mDvGG4j_8h-60" value="" style="edgeStyle=orthogonalEdgeStyle;rounded=0;orthogonalLoop=1;jettySize=auto;html=1;startArrow=none;startFill=0;endArrow=block;endFill=1;" parent="1" source="U8oC4eQE81mDvGG4j_8h-55" target="U8oC4eQE81mDvGG4j_8h-59" edge="1">
          <mxGeometry relative="1" as="geometry" />
        </mxCell>
        <mxCell id="U8oC4eQE81mDvGG4j_8h-55" value="Intermediate&lt;br&gt;Code" style="ellipse;whiteSpace=wrap;html=1;fillColor=#FFCCE6;" parent="1" vertex="1">
          <mxGeometry x="-90" y="2990" width="120" height="60" as="geometry" />
        </mxCell>
        <mxCell id="U8oC4eQE81mDvGG4j_8h-58" value="Hybrid" style="text;html=1;strokeColor=none;fillColor=none;align=center;verticalAlign=middle;whiteSpace=wrap;rounded=0;" parent="1" vertex="1">
          <mxGeometry x="-420" y="2920" width="100" height="30" as="geometry" />
        </mxCell>
        <mxCell id="U8oC4eQE81mDvGG4j_8h-62" value="" style="edgeStyle=orthogonalEdgeStyle;rounded=0;orthogonalLoop=1;jettySize=auto;html=1;startArrow=none;startFill=0;endArrow=block;endFill=1;" parent="1" source="U8oC4eQE81mDvGG4j_8h-59" target="U8oC4eQE81mDvGG4j_8h-61" edge="1">
          <mxGeometry relative="1" as="geometry" />
        </mxCell>
        <mxCell id="U8oC4eQE81mDvGG4j_8h-59" value="INTERPRETER" style="rounded=0;whiteSpace=wrap;html=1;fillColor=#FFFFCC;" parent="1" vertex="1">
          <mxGeometry x="-90" y="3110" width="120" height="60" as="geometry" />
        </mxCell>
        <mxCell id="U8oC4eQE81mDvGG4j_8h-61" value="Computer&lt;br&gt;HW" style="rounded=0;whiteSpace=wrap;html=1;fillColor=#CCFFFF;" parent="1" vertex="1">
          <mxGeometry x="-90" y="3210" width="120" height="60" as="geometry" />
        </mxCell>
        <mxCell id="U8oC4eQE81mDvGG4j_8h-65" value="" style="endArrow=classic;html=1;rounded=0;" parent="1" edge="1">
          <mxGeometry width="50" height="50" relative="1" as="geometry">
            <mxPoint x="-170" y="3230" as="sourcePoint" />
            <mxPoint x="-90" y="3230" as="targetPoint" />
          </mxGeometry>
        </mxCell>
        <mxCell id="U8oC4eQE81mDvGG4j_8h-66" value="Input data" style="text;html=1;strokeColor=none;fillColor=none;align=center;verticalAlign=middle;whiteSpace=wrap;rounded=0;" parent="1" vertex="1">
          <mxGeometry x="-230" y="3220" width="60" height="20" as="geometry" />
        </mxCell>
        <mxCell id="U8oC4eQE81mDvGG4j_8h-67" value="" style="endArrow=classic;html=1;rounded=0;" parent="1" edge="1">
          <mxGeometry width="50" height="50" relative="1" as="geometry">
            <mxPoint x="-90" y="3259.66" as="sourcePoint" />
            <mxPoint x="-170" y="3259.66" as="targetPoint" />
          </mxGeometry>
        </mxCell>
        <mxCell id="U8oC4eQE81mDvGG4j_8h-68" value="result" style="text;html=1;strokeColor=none;fillColor=none;align=center;verticalAlign=middle;whiteSpace=wrap;rounded=0;" parent="1" vertex="1">
          <mxGeometry x="-210" y="3250" width="40" height="20" as="geometry" />
        </mxCell>
        <mxCell id="dMUM4KrEvfkpjap-2oGe-1" value="" style="rounded=0;whiteSpace=wrap;html=1;fillColor=none;dashed=1;" parent="1" vertex="1">
          <mxGeometry x="200" y="2630" width="140" height="200" as="geometry" />
        </mxCell>
        <mxCell id="dMUM4KrEvfkpjap-2oGe-2" value="" style="edgeStyle=orthogonalEdgeStyle;rounded=0;orthogonalLoop=1;jettySize=auto;html=1;startArrow=none;startFill=0;endArrow=block;endFill=1;" parent="1" source="dMUM4KrEvfkpjap-2oGe-3" target="dMUM4KrEvfkpjap-2oGe-4" edge="1">
          <mxGeometry relative="1" as="geometry" />
        </mxCell>
        <mxCell id="dMUM4KrEvfkpjap-2oGe-3" value="INTERPRETER" style="rounded=0;whiteSpace=wrap;html=1;fillColor=#FFFFCC;" parent="1" vertex="1">
          <mxGeometry x="210" y="2650" width="120" height="60" as="geometry" />
        </mxCell>
        <mxCell id="dMUM4KrEvfkpjap-2oGe-4" value="Computer&lt;br&gt;HW" style="rounded=0;whiteSpace=wrap;html=1;fillColor=#CCFFFF;" parent="1" vertex="1">
          <mxGeometry x="210" y="2750" width="120" height="60" as="geometry" />
        </mxCell>
        <mxCell id="dMUM4KrEvfkpjap-2oGe-5" value="인터프리터 방식" style="text;html=1;strokeColor=none;fillColor=none;align=center;verticalAlign=middle;whiteSpace=wrap;rounded=0;" parent="1" vertex="1">
          <mxGeometry x="200" y="2600" width="100" height="30" as="geometry" />
        </mxCell>
        <mxCell id="dMUM4KrEvfkpjap-2oGe-6" value="" style="endArrow=classic;html=1;rounded=0;" parent="1" edge="1">
          <mxGeometry width="50" height="50" relative="1" as="geometry">
            <mxPoint x="130" y="2770" as="sourcePoint" />
            <mxPoint x="210" y="2770" as="targetPoint" />
          </mxGeometry>
        </mxCell>
        <mxCell id="dMUM4KrEvfkpjap-2oGe-7" value="Input data" style="text;html=1;strokeColor=none;fillColor=none;align=center;verticalAlign=middle;whiteSpace=wrap;rounded=0;" parent="1" vertex="1">
          <mxGeometry x="70" y="2760" width="60" height="20" as="geometry" />
        </mxCell>
        <mxCell id="dMUM4KrEvfkpjap-2oGe-8" value="" style="endArrow=classic;html=1;rounded=0;" parent="1" edge="1">
          <mxGeometry width="50" height="50" relative="1" as="geometry">
            <mxPoint x="210" y="2799.66" as="sourcePoint" />
            <mxPoint x="130" y="2799.66" as="targetPoint" />
          </mxGeometry>
        </mxCell>
        <mxCell id="dMUM4KrEvfkpjap-2oGe-9" value="result" style="text;html=1;strokeColor=none;fillColor=none;align=center;verticalAlign=middle;whiteSpace=wrap;rounded=0;" parent="1" vertex="1">
          <mxGeometry x="90" y="2790" width="40" height="20" as="geometry" />
        </mxCell>
        <mxCell id="dMUM4KrEvfkpjap-2oGe-10" value="" style="rounded=0;whiteSpace=wrap;html=1;fillColor=none;dashed=1;" parent="1" vertex="1">
          <mxGeometry x="-420" y="2600" width="460" height="140" as="geometry" />
        </mxCell>
        <mxCell id="dMUM4KrEvfkpjap-2oGe-11" value="" style="edgeStyle=orthogonalEdgeStyle;rounded=0;orthogonalLoop=1;jettySize=auto;html=1;startArrow=none;startFill=0;endArrow=block;endFill=1;" parent="1" source="dMUM4KrEvfkpjap-2oGe-12" target="dMUM4KrEvfkpjap-2oGe-14" edge="1">
          <mxGeometry relative="1" as="geometry" />
        </mxCell>
        <mxCell id="dMUM4KrEvfkpjap-2oGe-12" value="source&lt;br&gt;program" style="ellipse;whiteSpace=wrap;html=1;fillColor=#FFCCE6;" parent="1" vertex="1">
          <mxGeometry x="-410" y="2640" width="120" height="60" as="geometry" />
        </mxCell>
        <mxCell id="dMUM4KrEvfkpjap-2oGe-13" value="" style="edgeStyle=orthogonalEdgeStyle;rounded=0;orthogonalLoop=1;jettySize=auto;html=1;startArrow=none;startFill=0;endArrow=block;endFill=1;" parent="1" source="dMUM4KrEvfkpjap-2oGe-14" target="dMUM4KrEvfkpjap-2oGe-15" edge="1">
          <mxGeometry relative="1" as="geometry" />
        </mxCell>
        <mxCell id="dMUM4KrEvfkpjap-2oGe-14" value="COMPILER" style="rounded=0;whiteSpace=wrap;html=1;fillColor=#FFFFCC;" parent="1" vertex="1">
          <mxGeometry x="-250" y="2640" width="120" height="60" as="geometry" />
        </mxCell>
        <mxCell id="dMUM4KrEvfkpjap-2oGe-22" style="edgeStyle=orthogonalEdgeStyle;rounded=0;orthogonalLoop=1;jettySize=auto;html=1;exitX=0.5;exitY=1;exitDx=0;exitDy=0;entryX=0.5;entryY=0;entryDx=0;entryDy=0;" parent="1" source="dMUM4KrEvfkpjap-2oGe-15" target="dMUM4KrEvfkpjap-2oGe-17" edge="1">
          <mxGeometry relative="1" as="geometry" />
        </mxCell>
        <mxCell id="dMUM4KrEvfkpjap-2oGe-15" value="Machine&lt;br&gt;Code" style="ellipse;whiteSpace=wrap;html=1;fillColor=#FFCCE6;" parent="1" vertex="1">
          <mxGeometry x="-90" y="2640" width="120" height="60" as="geometry" />
        </mxCell>
        <mxCell id="dMUM4KrEvfkpjap-2oGe-16" value="컴파일러 방식" style="text;html=1;strokeColor=none;fillColor=none;align=center;verticalAlign=middle;whiteSpace=wrap;rounded=0;" parent="1" vertex="1">
          <mxGeometry x="-420" y="2570" width="100" height="30" as="geometry" />
        </mxCell>
        <mxCell id="dMUM4KrEvfkpjap-2oGe-17" value="Computer&lt;br&gt;HW" style="rounded=0;whiteSpace=wrap;html=1;fillColor=#CCFFFF;" parent="1" vertex="1">
          <mxGeometry x="-90" y="2770" width="120" height="60" as="geometry" />
        </mxCell>
        <mxCell id="dMUM4KrEvfkpjap-2oGe-18" value="" style="endArrow=classic;html=1;rounded=0;" parent="1" edge="1">
          <mxGeometry width="50" height="50" relative="1" as="geometry">
            <mxPoint x="-170" y="2790" as="sourcePoint" />
            <mxPoint x="-90" y="2790" as="targetPoint" />
          </mxGeometry>
        </mxCell>
        <mxCell id="dMUM4KrEvfkpjap-2oGe-19" value="Input data" style="text;html=1;strokeColor=none;fillColor=none;align=center;verticalAlign=middle;whiteSpace=wrap;rounded=0;" parent="1" vertex="1">
          <mxGeometry x="-230" y="2780" width="60" height="20" as="geometry" />
        </mxCell>
        <mxCell id="dMUM4KrEvfkpjap-2oGe-20" value="" style="endArrow=classic;html=1;rounded=0;" parent="1" edge="1">
          <mxGeometry width="50" height="50" relative="1" as="geometry">
            <mxPoint x="-90" y="2819.66" as="sourcePoint" />
            <mxPoint x="-170" y="2819.66" as="targetPoint" />
          </mxGeometry>
        </mxCell>
        <mxCell id="dMUM4KrEvfkpjap-2oGe-21" value="result" style="text;html=1;strokeColor=none;fillColor=none;align=center;verticalAlign=middle;whiteSpace=wrap;rounded=0;" parent="1" vertex="1">
          <mxGeometry x="-210" y="2810" width="40" height="20" as="geometry" />
        </mxCell>
        <mxCell id="dMUM4KrEvfkpjap-2oGe-23" value="Loading" style="text;html=1;strokeColor=none;fillColor=none;align=center;verticalAlign=middle;whiteSpace=wrap;rounded=0;" parent="1" vertex="1">
          <mxGeometry x="-90" y="2735" width="60" height="30" as="geometry" />
        </mxCell>
        <mxCell id="dMUM4KrEvfkpjap-2oGe-25" style="rounded=0;orthogonalLoop=1;jettySize=auto;html=1;exitX=1;exitY=0.5;exitDx=0;exitDy=0;" parent="1" source="dMUM4KrEvfkpjap-2oGe-24" edge="1">
          <mxGeometry relative="1" as="geometry">
            <mxPoint x="160" y="3040" as="targetPoint" />
          </mxGeometry>
        </mxCell>
        <mxCell id="dMUM4KrEvfkpjap-2oGe-24" value="" style="ellipse;whiteSpace=wrap;html=1;fillColor=none;strokeColor=#FF0000;strokeWidth=3;" parent="1" vertex="1">
          <mxGeometry x="-110" y="3100" width="160" height="80" as="geometry" />
        </mxCell>
        <mxCell id="dMUM4KrEvfkpjap-2oGe-26" value="VM(Virtual Machine)으로 동작한다" style="text;html=1;strokeColor=none;fillColor=none;align=center;verticalAlign=middle;whiteSpace=wrap;rounded=0;" parent="1" vertex="1">
          <mxGeometry x="160" y="3010" width="200" height="30" as="geometry" />
        </mxCell>
        <mxCell id="dMUM4KrEvfkpjap-2oGe-27" value="Virtual Machine platform" style="shape=document;whiteSpace=wrap;html=1;boundedLbl=1;strokeColor=#000000;strokeWidth=1;fillColor=#6666FF;size=0.75;fontStyle=1;fontSize=16;" parent="1" vertex="1">
          <mxGeometry x="170" y="3050" width="240" height="80" as="geometry" />
        </mxCell>
        <mxCell id="dMUM4KrEvfkpjap-2oGe-30" value="" style="endArrow=none;dashed=1;html=1;dashPattern=1 3;strokeWidth=2;rounded=0;startArrow=none;" parent="1" source="dMUM4KrEvfkpjap-2oGe-33" edge="1">
          <mxGeometry width="50" height="50" relative="1" as="geometry">
            <mxPoint x="350" y="3210" as="sourcePoint" />
            <mxPoint x="350" y="3050" as="targetPoint" />
          </mxGeometry>
        </mxCell>
        <mxCell id="dMUM4KrEvfkpjap-2oGe-31" value="m1 instruction을 지원하는 하드웨어" style="text;html=1;strokeColor=none;fillColor=none;align=center;verticalAlign=middle;whiteSpace=wrap;rounded=0;" parent="1" vertex="1">
          <mxGeometry x="180" y="3210" width="100" height="30" as="geometry" />
        </mxCell>
        <mxCell id="dMUM4KrEvfkpjap-2oGe-33" value="" style="shape=document;whiteSpace=wrap;html=1;boundedLbl=1;strokeColor=#000000;strokeWidth=1;fillColor=#FF3333;size=0.75;fontStyle=1;fontSize=16;rotation=-180;horizontal=1;" parent="1" vertex="1">
          <mxGeometry x="170" y="3070" width="240" height="80" as="geometry" />
        </mxCell>
        <mxCell id="dMUM4KrEvfkpjap-2oGe-29" value="" style="endArrow=none;dashed=1;html=1;dashPattern=1 3;strokeWidth=2;rounded=0;" parent="1" edge="1">
          <mxGeometry width="50" height="50" relative="1" as="geometry">
            <mxPoint x="230" y="3210" as="sourcePoint" />
            <mxPoint x="230" y="3050" as="targetPoint" />
          </mxGeometry>
        </mxCell>
        <mxCell id="dMUM4KrEvfkpjap-2oGe-34" value="" style="endArrow=none;dashed=1;html=1;dashPattern=1 3;strokeWidth=2;rounded=0;entryX=0.75;entryY=0;entryDx=0;entryDy=0;" parent="1" target="dMUM4KrEvfkpjap-2oGe-27" edge="1">
          <mxGeometry width="50" height="50" relative="1" as="geometry">
            <mxPoint x="350" y="3210" as="sourcePoint" />
            <mxPoint x="350" y="3050" as="targetPoint" />
          </mxGeometry>
        </mxCell>
        <mxCell id="dMUM4KrEvfkpjap-2oGe-35" value="HW" style="text;html=1;strokeColor=none;fillColor=none;align=center;verticalAlign=middle;whiteSpace=wrap;rounded=0;fontSize=16;fontStyle=1" parent="1" vertex="1">
          <mxGeometry x="260" y="3120" width="60" height="30" as="geometry" />
        </mxCell>
        <mxCell id="dMUM4KrEvfkpjap-2oGe-37" value="m2 instruction을 지원하는 하드웨어" style="text;html=1;strokeColor=none;fillColor=none;align=center;verticalAlign=middle;whiteSpace=wrap;rounded=0;" parent="1" vertex="1">
          <mxGeometry x="300" y="3210" width="100" height="30" as="geometry" />
        </mxCell>
        <mxCell id="vKUTn9LRvCM_VWT6KSq2-2" value="" style="rounded=0;whiteSpace=wrap;html=1;strokeWidth=2;" parent="1" vertex="1">
          <mxGeometry x="605" y="2670" width="40" height="40" as="geometry" />
        </mxCell>
        <mxCell id="F0TtPb5WLLD8eyOE0Bdh-1" value="" style="endArrow=classic;html=1;rounded=0;" parent="1" edge="1">
          <mxGeometry width="50" height="50" relative="1" as="geometry">
            <mxPoint x="625" y="2690" as="sourcePoint" />
            <mxPoint x="625" y="2740" as="targetPoint" />
          </mxGeometry>
        </mxCell>
        <mxCell id="F0TtPb5WLLD8eyOE0Bdh-2" value="A" style="text;html=1;strokeColor=none;fillColor=none;align=center;verticalAlign=middle;whiteSpace=wrap;rounded=0;fontStyle=1;fontSize=16;" parent="1" vertex="1">
          <mxGeometry x="595" y="2740" width="60" height="30" as="geometry" />
        </mxCell>
        <mxCell id="F0TtPb5WLLD8eyOE0Bdh-11" value="" style="edgeStyle=orthogonalEdgeStyle;rounded=0;orthogonalLoop=1;jettySize=auto;html=1;fontSize=16;" parent="1" source="F0TtPb5WLLD8eyOE0Bdh-3" target="F0TtPb5WLLD8eyOE0Bdh-9" edge="1">
          <mxGeometry relative="1" as="geometry" />
        </mxCell>
        <mxCell id="F0TtPb5WLLD8eyOE0Bdh-3" value="" style="rounded=0;whiteSpace=wrap;html=1;strokeWidth=2;" parent="1" vertex="1">
          <mxGeometry x="645" y="2670" width="40" height="40" as="geometry" />
        </mxCell>
        <mxCell id="F0TtPb5WLLD8eyOE0Bdh-6" value="" style="rounded=0;whiteSpace=wrap;html=1;strokeWidth=2;" parent="1" vertex="1">
          <mxGeometry x="710" y="2670" width="40" height="40" as="geometry" />
        </mxCell>
        <mxCell id="F0TtPb5WLLD8eyOE0Bdh-7" value="" style="endArrow=classic;html=1;rounded=0;" parent="1" edge="1">
          <mxGeometry width="50" height="50" relative="1" as="geometry">
            <mxPoint x="730" y="2690" as="sourcePoint" />
            <mxPoint x="730" y="2740" as="targetPoint" />
          </mxGeometry>
        </mxCell>
        <mxCell id="F0TtPb5WLLD8eyOE0Bdh-8" value="B" style="text;html=1;strokeColor=none;fillColor=none;align=center;verticalAlign=middle;whiteSpace=wrap;rounded=0;fontStyle=1;fontSize=16;" parent="1" vertex="1">
          <mxGeometry x="700" y="2740" width="60" height="30" as="geometry" />
        </mxCell>
        <mxCell id="F0TtPb5WLLD8eyOE0Bdh-9" value="" style="rounded=0;whiteSpace=wrap;html=1;strokeWidth=2;" parent="1" vertex="1">
          <mxGeometry x="750" y="2670" width="40" height="40" as="geometry" />
        </mxCell>
        <mxCell id="F0TtPb5WLLD8eyOE0Bdh-4" value="" style="endArrow=classic;html=1;rounded=0;" parent="1" edge="1">
          <mxGeometry width="50" height="50" relative="1" as="geometry">
            <mxPoint x="665" y="2690" as="sourcePoint" />
            <mxPoint x="725" y="2690" as="targetPoint" />
          </mxGeometry>
        </mxCell>
        <mxCell id="F0TtPb5WLLD8eyOE0Bdh-12" value="" style="rounded=0;whiteSpace=wrap;html=1;strokeWidth=2;" parent="1" vertex="1">
          <mxGeometry x="815" y="2670" width="40" height="40" as="geometry" />
        </mxCell>
        <mxCell id="F0TtPb5WLLD8eyOE0Bdh-13" value="" style="endArrow=classic;html=1;rounded=0;" parent="1" edge="1">
          <mxGeometry width="50" height="50" relative="1" as="geometry">
            <mxPoint x="835" y="2690" as="sourcePoint" />
            <mxPoint x="835" y="2740" as="targetPoint" />
          </mxGeometry>
        </mxCell>
        <mxCell id="F0TtPb5WLLD8eyOE0Bdh-14" value="C" style="text;html=1;strokeColor=none;fillColor=none;align=center;verticalAlign=middle;whiteSpace=wrap;rounded=0;fontStyle=1;fontSize=16;" parent="1" vertex="1">
          <mxGeometry x="805" y="2740" width="60" height="30" as="geometry" />
        </mxCell>
        <mxCell id="F0TtPb5WLLD8eyOE0Bdh-15" value="" style="edgeStyle=orthogonalEdgeStyle;rounded=0;orthogonalLoop=1;jettySize=auto;html=1;fontSize=16;" parent="1" source="F0TtPb5WLLD8eyOE0Bdh-16" target="F0TtPb5WLLD8eyOE0Bdh-20" edge="1">
          <mxGeometry relative="1" as="geometry" />
        </mxCell>
        <mxCell id="F0TtPb5WLLD8eyOE0Bdh-16" value="" style="rounded=0;whiteSpace=wrap;html=1;strokeWidth=2;" parent="1" vertex="1">
          <mxGeometry x="855" y="2670" width="40" height="40" as="geometry" />
        </mxCell>
        <mxCell id="F0TtPb5WLLD8eyOE0Bdh-17" value="" style="rounded=0;whiteSpace=wrap;html=1;strokeWidth=2;" parent="1" vertex="1">
          <mxGeometry x="920" y="2670" width="40" height="40" as="geometry" />
        </mxCell>
        <mxCell id="F0TtPb5WLLD8eyOE0Bdh-18" value="" style="endArrow=classic;html=1;rounded=0;" parent="1" edge="1">
          <mxGeometry width="50" height="50" relative="1" as="geometry">
            <mxPoint x="940" y="2690" as="sourcePoint" />
            <mxPoint x="940" y="2740" as="targetPoint" />
          </mxGeometry>
        </mxCell>
        <mxCell id="F0TtPb5WLLD8eyOE0Bdh-19" value="D" style="text;html=1;strokeColor=none;fillColor=none;align=center;verticalAlign=middle;whiteSpace=wrap;rounded=0;fontStyle=1;fontSize=16;" parent="1" vertex="1">
          <mxGeometry x="910" y="2740" width="60" height="30" as="geometry" />
        </mxCell>
        <mxCell id="F0TtPb5WLLD8eyOE0Bdh-20" value="" style="rounded=0;whiteSpace=wrap;html=1;strokeWidth=2;" parent="1" vertex="1">
          <mxGeometry x="960" y="2670" width="40" height="40" as="geometry" />
        </mxCell>
        <mxCell id="F0TtPb5WLLD8eyOE0Bdh-22" value="" style="endArrow=classic;html=1;rounded=0;" parent="1" edge="1">
          <mxGeometry width="50" height="50" relative="1" as="geometry">
            <mxPoint x="875" y="2690" as="sourcePoint" />
            <mxPoint x="935" y="2690" as="targetPoint" />
          </mxGeometry>
        </mxCell>
        <mxCell id="F0TtPb5WLLD8eyOE0Bdh-10" value="" style="endArrow=classic;html=1;rounded=0;" parent="1" edge="1">
          <mxGeometry width="50" height="50" relative="1" as="geometry">
            <mxPoint x="770" y="2690" as="sourcePoint" />
            <mxPoint x="830" y="2690" as="targetPoint" />
          </mxGeometry>
        </mxCell>
        <mxCell id="F0TtPb5WLLD8eyOE0Bdh-23" style="rounded=0;orthogonalLoop=1;jettySize=auto;html=1;exitX=0;exitY=1;exitDx=0;exitDy=0;entryX=1;entryY=0;entryDx=0;entryDy=0;fontSize=16;endArrow=none;endFill=0;strokeWidth=2;" parent="1" source="F0TtPb5WLLD8eyOE0Bdh-20" target="F0TtPb5WLLD8eyOE0Bdh-20" edge="1">
          <mxGeometry relative="1" as="geometry" />
        </mxCell>
        <mxCell id="F0TtPb5WLLD8eyOE0Bdh-24" value="" style="endArrow=classic;html=1;rounded=0;" parent="1" edge="1">
          <mxGeometry width="50" height="50" relative="1" as="geometry">
            <mxPoint x="560" y="2690" as="sourcePoint" />
            <mxPoint x="620" y="2690" as="targetPoint" />
          </mxGeometry>
        </mxCell>
        <mxCell id="F0TtPb5WLLD8eyOE0Bdh-26" value="(A B C D)" style="text;html=1;strokeColor=none;fillColor=none;align=center;verticalAlign=middle;whiteSpace=wrap;rounded=0;fontSize=24;fontStyle=1" parent="1" vertex="1">
          <mxGeometry x="722.5" y="2620" width="155" height="30" as="geometry" />
        </mxCell>
        <mxCell id="F0TtPb5WLLD8eyOE0Bdh-27" value="" style="rounded=0;whiteSpace=wrap;html=1;strokeWidth=2;" parent="1" vertex="1">
          <mxGeometry x="605" y="2890" width="40" height="40" as="geometry" />
        </mxCell>
        <mxCell id="F0TtPb5WLLD8eyOE0Bdh-28" value="" style="endArrow=classic;html=1;rounded=0;" parent="1" edge="1">
          <mxGeometry width="50" height="50" relative="1" as="geometry">
            <mxPoint x="625" y="2910" as="sourcePoint" />
            <mxPoint x="625" y="2960" as="targetPoint" />
          </mxGeometry>
        </mxCell>
        <mxCell id="F0TtPb5WLLD8eyOE0Bdh-29" value="A" style="text;html=1;strokeColor=none;fillColor=none;align=center;verticalAlign=middle;whiteSpace=wrap;rounded=0;fontStyle=1;fontSize=16;" parent="1" vertex="1">
          <mxGeometry x="595" y="2960" width="60" height="30" as="geometry" />
        </mxCell>
        <mxCell id="F0TtPb5WLLD8eyOE0Bdh-30" value="" style="edgeStyle=orthogonalEdgeStyle;rounded=0;orthogonalLoop=1;jettySize=auto;html=1;fontSize=16;" parent="1" source="F0TtPb5WLLD8eyOE0Bdh-31" target="F0TtPb5WLLD8eyOE0Bdh-35" edge="1">
          <mxGeometry relative="1" as="geometry" />
        </mxCell>
        <mxCell id="F0TtPb5WLLD8eyOE0Bdh-31" value="" style="rounded=0;whiteSpace=wrap;html=1;strokeWidth=2;" parent="1" vertex="1">
          <mxGeometry x="645" y="2890" width="40" height="40" as="geometry" />
        </mxCell>
        <mxCell id="F0TtPb5WLLD8eyOE0Bdh-32" value="" style="rounded=0;whiteSpace=wrap;html=1;strokeWidth=2;" parent="1" vertex="1">
          <mxGeometry x="710" y="2890" width="40" height="40" as="geometry" />
        </mxCell>
        <mxCell id="F0TtPb5WLLD8eyOE0Bdh-33" value="" style="endArrow=classic;html=1;rounded=0;" parent="1" edge="1">
          <mxGeometry width="50" height="50" relative="1" as="geometry">
            <mxPoint x="730" y="2910" as="sourcePoint" />
            <mxPoint x="730" y="3000" as="targetPoint" />
          </mxGeometry>
        </mxCell>
        <mxCell id="F0TtPb5WLLD8eyOE0Bdh-35" value="" style="rounded=0;whiteSpace=wrap;html=1;strokeWidth=2;" parent="1" vertex="1">
          <mxGeometry x="750" y="2890" width="40" height="40" as="geometry" />
        </mxCell>
        <mxCell id="F0TtPb5WLLD8eyOE0Bdh-36" value="" style="endArrow=classic;html=1;rounded=0;" parent="1" edge="1">
          <mxGeometry width="50" height="50" relative="1" as="geometry">
            <mxPoint x="665" y="2910" as="sourcePoint" />
            <mxPoint x="725" y="2910" as="targetPoint" />
          </mxGeometry>
        </mxCell>
        <mxCell id="F0TtPb5WLLD8eyOE0Bdh-37" value="" style="rounded=0;whiteSpace=wrap;html=1;strokeWidth=2;" parent="1" vertex="1">
          <mxGeometry x="815" y="2890" width="40" height="40" as="geometry" />
        </mxCell>
        <mxCell id="F0TtPb5WLLD8eyOE0Bdh-38" value="" style="endArrow=classic;html=1;rounded=0;" parent="1" edge="1">
          <mxGeometry width="50" height="50" relative="1" as="geometry">
            <mxPoint x="835" y="2910" as="sourcePoint" />
            <mxPoint x="835" y="2960" as="targetPoint" />
          </mxGeometry>
        </mxCell>
        <mxCell id="F0TtPb5WLLD8eyOE0Bdh-39" value="D" style="text;html=1;strokeColor=none;fillColor=none;align=center;verticalAlign=middle;whiteSpace=wrap;rounded=0;fontStyle=1;fontSize=16;" parent="1" vertex="1">
          <mxGeometry x="805" y="2960" width="60" height="30" as="geometry" />
        </mxCell>
        <mxCell id="F0TtPb5WLLD8eyOE0Bdh-40" value="" style="edgeStyle=orthogonalEdgeStyle;rounded=0;orthogonalLoop=1;jettySize=auto;html=1;fontSize=16;" parent="1" source="F0TtPb5WLLD8eyOE0Bdh-41" target="F0TtPb5WLLD8eyOE0Bdh-45" edge="1">
          <mxGeometry relative="1" as="geometry" />
        </mxCell>
        <mxCell id="F0TtPb5WLLD8eyOE0Bdh-41" value="" style="rounded=0;whiteSpace=wrap;html=1;strokeWidth=2;" parent="1" vertex="1">
          <mxGeometry x="855" y="2890" width="40" height="40" as="geometry" />
        </mxCell>
        <mxCell id="F0TtPb5WLLD8eyOE0Bdh-42" value="" style="rounded=0;whiteSpace=wrap;html=1;strokeWidth=2;" parent="1" vertex="1">
          <mxGeometry x="920" y="2890" width="40" height="40" as="geometry" />
        </mxCell>
        <mxCell id="F0TtPb5WLLD8eyOE0Bdh-43" value="" style="endArrow=classic;html=1;rounded=0;" parent="1" edge="1">
          <mxGeometry width="50" height="50" relative="1" as="geometry">
            <mxPoint x="940" y="2910" as="sourcePoint" />
            <mxPoint x="940" y="3000" as="targetPoint" />
          </mxGeometry>
        </mxCell>
        <mxCell id="F0TtPb5WLLD8eyOE0Bdh-45" value="" style="rounded=0;whiteSpace=wrap;html=1;strokeWidth=2;" parent="1" vertex="1">
          <mxGeometry x="960" y="2890" width="40" height="40" as="geometry" />
        </mxCell>
        <mxCell id="F0TtPb5WLLD8eyOE0Bdh-46" value="" style="endArrow=classic;html=1;rounded=0;" parent="1" edge="1">
          <mxGeometry width="50" height="50" relative="1" as="geometry">
            <mxPoint x="875" y="2910" as="sourcePoint" />
            <mxPoint x="935" y="2910" as="targetPoint" />
          </mxGeometry>
        </mxCell>
        <mxCell id="F0TtPb5WLLD8eyOE0Bdh-47" value="" style="endArrow=classic;html=1;rounded=0;" parent="1" edge="1">
          <mxGeometry width="50" height="50" relative="1" as="geometry">
            <mxPoint x="770" y="2910" as="sourcePoint" />
            <mxPoint x="830" y="2910" as="targetPoint" />
          </mxGeometry>
        </mxCell>
        <mxCell id="F0TtPb5WLLD8eyOE0Bdh-48" style="rounded=0;orthogonalLoop=1;jettySize=auto;html=1;exitX=0;exitY=1;exitDx=0;exitDy=0;entryX=1;entryY=0;entryDx=0;entryDy=0;fontSize=16;endArrow=none;endFill=0;strokeWidth=2;" parent="1" source="F0TtPb5WLLD8eyOE0Bdh-45" target="F0TtPb5WLLD8eyOE0Bdh-45" edge="1">
          <mxGeometry relative="1" as="geometry" />
        </mxCell>
        <mxCell id="F0TtPb5WLLD8eyOE0Bdh-49" value="" style="endArrow=classic;html=1;rounded=0;" parent="1" edge="1">
          <mxGeometry width="50" height="50" relative="1" as="geometry">
            <mxPoint x="560" y="2910" as="sourcePoint" />
            <mxPoint x="620" y="2910" as="targetPoint" />
          </mxGeometry>
        </mxCell>
        <mxCell id="F0TtPb5WLLD8eyOE0Bdh-50" value="" style="rounded=0;whiteSpace=wrap;html=1;strokeWidth=2;" parent="1" vertex="1">
          <mxGeometry x="710" y="3010" width="40" height="40" as="geometry" />
        </mxCell>
        <mxCell id="F0TtPb5WLLD8eyOE0Bdh-51" value="" style="endArrow=classic;html=1;rounded=0;" parent="1" edge="1">
          <mxGeometry width="50" height="50" relative="1" as="geometry">
            <mxPoint x="730" y="3030" as="sourcePoint" />
            <mxPoint x="730" y="3080" as="targetPoint" />
          </mxGeometry>
        </mxCell>
        <mxCell id="F0TtPb5WLLD8eyOE0Bdh-52" value="B" style="text;html=1;strokeColor=none;fillColor=none;align=center;verticalAlign=middle;whiteSpace=wrap;rounded=0;fontStyle=1;fontSize=16;" parent="1" vertex="1">
          <mxGeometry x="700" y="3080" width="60" height="30" as="geometry" />
        </mxCell>
        <mxCell id="F0TtPb5WLLD8eyOE0Bdh-53" value="" style="edgeStyle=orthogonalEdgeStyle;rounded=0;orthogonalLoop=1;jettySize=auto;html=1;fontSize=16;" parent="1" source="F0TtPb5WLLD8eyOE0Bdh-54" target="F0TtPb5WLLD8eyOE0Bdh-58" edge="1">
          <mxGeometry relative="1" as="geometry" />
        </mxCell>
        <mxCell id="F0TtPb5WLLD8eyOE0Bdh-54" value="" style="rounded=0;whiteSpace=wrap;html=1;strokeWidth=2;" parent="1" vertex="1">
          <mxGeometry x="750" y="3010" width="40" height="40" as="geometry" />
        </mxCell>
        <mxCell id="F0TtPb5WLLD8eyOE0Bdh-55" value="" style="rounded=0;whiteSpace=wrap;html=1;strokeWidth=2;" parent="1" vertex="1">
          <mxGeometry x="815" y="3010" width="40" height="40" as="geometry" />
        </mxCell>
        <mxCell id="F0TtPb5WLLD8eyOE0Bdh-56" value="" style="endArrow=classic;html=1;rounded=0;" parent="1" edge="1">
          <mxGeometry width="50" height="50" relative="1" as="geometry">
            <mxPoint x="835" y="3030" as="sourcePoint" />
            <mxPoint x="835" y="3080" as="targetPoint" />
          </mxGeometry>
        </mxCell>
        <mxCell id="F0TtPb5WLLD8eyOE0Bdh-57" value="C" style="text;html=1;strokeColor=none;fillColor=none;align=center;verticalAlign=middle;whiteSpace=wrap;rounded=0;fontStyle=1;fontSize=16;" parent="1" vertex="1">
          <mxGeometry x="805" y="3080" width="60" height="30" as="geometry" />
        </mxCell>
        <mxCell id="F0TtPb5WLLD8eyOE0Bdh-58" value="" style="rounded=0;whiteSpace=wrap;html=1;strokeWidth=2;" parent="1" vertex="1">
          <mxGeometry x="855" y="3010" width="40" height="40" as="geometry" />
        </mxCell>
        <mxCell id="F0TtPb5WLLD8eyOE0Bdh-59" value="" style="endArrow=classic;html=1;rounded=0;" parent="1" edge="1">
          <mxGeometry width="50" height="50" relative="1" as="geometry">
            <mxPoint x="770" y="3030" as="sourcePoint" />
            <mxPoint x="830" y="3030" as="targetPoint" />
          </mxGeometry>
        </mxCell>
        <mxCell id="F0TtPb5WLLD8eyOE0Bdh-60" style="rounded=0;orthogonalLoop=1;jettySize=auto;html=1;exitX=0;exitY=1;exitDx=0;exitDy=0;entryX=1;entryY=0;entryDx=0;entryDy=0;fontSize=16;endArrow=none;endFill=0;strokeWidth=2;" parent="1" source="F0TtPb5WLLD8eyOE0Bdh-58" target="F0TtPb5WLLD8eyOE0Bdh-58" edge="1">
          <mxGeometry relative="1" as="geometry" />
        </mxCell>
        <mxCell id="F0TtPb5WLLD8eyOE0Bdh-62" value="" style="rounded=0;whiteSpace=wrap;html=1;strokeWidth=2;" parent="1" vertex="1">
          <mxGeometry x="920" y="3010" width="40" height="40" as="geometry" />
        </mxCell>
        <mxCell id="F0TtPb5WLLD8eyOE0Bdh-63" value="" style="endArrow=classic;html=1;rounded=0;" parent="1" edge="1">
          <mxGeometry width="50" height="50" relative="1" as="geometry">
            <mxPoint x="940" y="3030" as="sourcePoint" />
            <mxPoint x="940" y="3080" as="targetPoint" />
          </mxGeometry>
        </mxCell>
        <mxCell id="F0TtPb5WLLD8eyOE0Bdh-64" value="E" style="text;html=1;strokeColor=none;fillColor=none;align=center;verticalAlign=middle;whiteSpace=wrap;rounded=0;fontStyle=1;fontSize=16;" parent="1" vertex="1">
          <mxGeometry x="910" y="3080" width="60" height="30" as="geometry" />
        </mxCell>
        <mxCell id="F0TtPb5WLLD8eyOE0Bdh-65" value="" style="edgeStyle=orthogonalEdgeStyle;rounded=0;orthogonalLoop=1;jettySize=auto;html=1;fontSize=16;" parent="1" source="F0TtPb5WLLD8eyOE0Bdh-66" target="F0TtPb5WLLD8eyOE0Bdh-70" edge="1">
          <mxGeometry relative="1" as="geometry" />
        </mxCell>
        <mxCell id="F0TtPb5WLLD8eyOE0Bdh-66" value="" style="rounded=0;whiteSpace=wrap;html=1;strokeWidth=2;" parent="1" vertex="1">
          <mxGeometry x="960" y="3010" width="40" height="40" as="geometry" />
        </mxCell>
        <mxCell id="F0TtPb5WLLD8eyOE0Bdh-67" value="" style="rounded=0;whiteSpace=wrap;html=1;strokeWidth=2;" parent="1" vertex="1">
          <mxGeometry x="1025" y="3010" width="40" height="40" as="geometry" />
        </mxCell>
        <mxCell id="F0TtPb5WLLD8eyOE0Bdh-68" value="" style="endArrow=classic;html=1;rounded=0;" parent="1" edge="1">
          <mxGeometry width="50" height="50" relative="1" as="geometry">
            <mxPoint x="1045" y="3030" as="sourcePoint" />
            <mxPoint x="1045" y="3100" as="targetPoint" />
          </mxGeometry>
        </mxCell>
        <mxCell id="F0TtPb5WLLD8eyOE0Bdh-70" value="" style="rounded=0;whiteSpace=wrap;html=1;strokeWidth=2;" parent="1" vertex="1">
          <mxGeometry x="1065" y="3010" width="40" height="40" as="geometry" />
        </mxCell>
        <mxCell id="F0TtPb5WLLD8eyOE0Bdh-71" value="" style="endArrow=classic;html=1;rounded=0;" parent="1" edge="1">
          <mxGeometry width="50" height="50" relative="1" as="geometry">
            <mxPoint x="980" y="3030" as="sourcePoint" />
            <mxPoint x="1040" y="3030" as="targetPoint" />
          </mxGeometry>
        </mxCell>
        <mxCell id="F0TtPb5WLLD8eyOE0Bdh-72" style="rounded=0;orthogonalLoop=1;jettySize=auto;html=1;exitX=0;exitY=1;exitDx=0;exitDy=0;entryX=1;entryY=0;entryDx=0;entryDy=0;fontSize=16;endArrow=none;endFill=0;strokeWidth=2;" parent="1" source="F0TtPb5WLLD8eyOE0Bdh-70" target="F0TtPb5WLLD8eyOE0Bdh-70" edge="1">
          <mxGeometry relative="1" as="geometry" />
        </mxCell>
        <mxCell id="F0TtPb5WLLD8eyOE0Bdh-82" value="" style="rounded=0;whiteSpace=wrap;html=1;strokeWidth=2;" parent="1" vertex="1">
          <mxGeometry x="1030" y="3110" width="40" height="40" as="geometry" />
        </mxCell>
        <mxCell id="F0TtPb5WLLD8eyOE0Bdh-83" value="" style="endArrow=classic;html=1;rounded=0;" parent="1" edge="1">
          <mxGeometry width="50" height="50" relative="1" as="geometry">
            <mxPoint x="1050" y="3130" as="sourcePoint" />
            <mxPoint x="1050" y="3180" as="targetPoint" />
          </mxGeometry>
        </mxCell>
        <mxCell id="F0TtPb5WLLD8eyOE0Bdh-84" value="F" style="text;html=1;strokeColor=none;fillColor=none;align=center;verticalAlign=middle;whiteSpace=wrap;rounded=0;fontStyle=1;fontSize=16;" parent="1" vertex="1">
          <mxGeometry x="1020" y="3180" width="60" height="30" as="geometry" />
        </mxCell>
        <mxCell id="F0TtPb5WLLD8eyOE0Bdh-85" value="" style="edgeStyle=orthogonalEdgeStyle;rounded=0;orthogonalLoop=1;jettySize=auto;html=1;fontSize=16;" parent="1" source="F0TtPb5WLLD8eyOE0Bdh-86" target="F0TtPb5WLLD8eyOE0Bdh-89" edge="1">
          <mxGeometry relative="1" as="geometry" />
        </mxCell>
        <mxCell id="F0TtPb5WLLD8eyOE0Bdh-86" value="" style="rounded=0;whiteSpace=wrap;html=1;strokeWidth=2;" parent="1" vertex="1">
          <mxGeometry x="1070" y="3110" width="40" height="40" as="geometry" />
        </mxCell>
        <mxCell id="F0TtPb5WLLD8eyOE0Bdh-87" value="" style="rounded=0;whiteSpace=wrap;html=1;strokeWidth=2;" parent="1" vertex="1">
          <mxGeometry x="1135" y="3110" width="40" height="40" as="geometry" />
        </mxCell>
        <mxCell id="F0TtPb5WLLD8eyOE0Bdh-88" value="" style="endArrow=classic;html=1;rounded=0;" parent="1" edge="1">
          <mxGeometry width="50" height="50" relative="1" as="geometry">
            <mxPoint x="1155" y="3130" as="sourcePoint" />
            <mxPoint x="1155" y="3180" as="targetPoint" />
          </mxGeometry>
        </mxCell>
        <mxCell id="F0TtPb5WLLD8eyOE0Bdh-89" value="" style="rounded=0;whiteSpace=wrap;html=1;strokeWidth=2;" parent="1" vertex="1">
          <mxGeometry x="1175" y="3110" width="40" height="40" as="geometry" />
        </mxCell>
        <mxCell id="F0TtPb5WLLD8eyOE0Bdh-90" value="" style="endArrow=classic;html=1;rounded=0;" parent="1" edge="1">
          <mxGeometry width="50" height="50" relative="1" as="geometry">
            <mxPoint x="1090" y="3130" as="sourcePoint" />
            <mxPoint x="1150" y="3130" as="targetPoint" />
          </mxGeometry>
        </mxCell>
        <mxCell id="F0TtPb5WLLD8eyOE0Bdh-91" style="rounded=0;orthogonalLoop=1;jettySize=auto;html=1;exitX=0;exitY=1;exitDx=0;exitDy=0;entryX=1;entryY=0;entryDx=0;entryDy=0;fontSize=16;endArrow=none;endFill=0;fontStyle=0;strokeWidth=2;" parent="1" source="F0TtPb5WLLD8eyOE0Bdh-89" target="F0TtPb5WLLD8eyOE0Bdh-89" edge="1">
          <mxGeometry relative="1" as="geometry" />
        </mxCell>
        <mxCell id="F0TtPb5WLLD8eyOE0Bdh-92" value="G" style="text;html=1;strokeColor=none;fillColor=none;align=center;verticalAlign=middle;whiteSpace=wrap;rounded=0;fontStyle=1;fontSize=16;" parent="1" vertex="1">
          <mxGeometry x="1125" y="3180" width="60" height="30" as="geometry" />
        </mxCell>
        <mxCell id="F0TtPb5WLLD8eyOE0Bdh-93" value="( A ( B C ) D ( E ( F G ) ) )" style="text;html=1;strokeColor=none;fillColor=none;align=center;verticalAlign=middle;whiteSpace=wrap;rounded=0;fontSize=24;fontStyle=1" parent="1" vertex="1">
          <mxGeometry x="645" y="2840" width="310" height="30" as="geometry" />
        </mxCell>
        <mxCell id="id5l2WUpKiHCcTvq_rWC-10" style="rounded=0;orthogonalLoop=1;jettySize=auto;html=1;exitX=0.5;exitY=1;exitDx=0;exitDy=0;entryX=0.5;entryY=0;entryDx=0;entryDy=0;fontSize=20;endArrow=none;endFill=0;" parent="1" source="id5l2WUpKiHCcTvq_rWC-1" target="id5l2WUpKiHCcTvq_rWC-7" edge="1">
          <mxGeometry relative="1" as="geometry" />
        </mxCell>
        <mxCell id="id5l2WUpKiHCcTvq_rWC-11" style="edgeStyle=none;rounded=0;orthogonalLoop=1;jettySize=auto;html=1;exitX=0.5;exitY=1;exitDx=0;exitDy=0;entryX=0.5;entryY=0;entryDx=0;entryDy=0;fontSize=20;endArrow=none;endFill=0;" parent="1" source="id5l2WUpKiHCcTvq_rWC-1" target="id5l2WUpKiHCcTvq_rWC-2" edge="1">
          <mxGeometry relative="1" as="geometry" />
        </mxCell>
        <mxCell id="id5l2WUpKiHCcTvq_rWC-12" style="edgeStyle=none;rounded=0;orthogonalLoop=1;jettySize=auto;html=1;exitX=0.5;exitY=1;exitDx=0;exitDy=0;entryX=0.5;entryY=0;entryDx=0;entryDy=0;fontSize=20;endArrow=none;endFill=0;" parent="1" source="id5l2WUpKiHCcTvq_rWC-1" target="id5l2WUpKiHCcTvq_rWC-9" edge="1">
          <mxGeometry relative="1" as="geometry" />
        </mxCell>
        <mxCell id="id5l2WUpKiHCcTvq_rWC-1" value="prog" style="rounded=0;whiteSpace=wrap;html=1;fontStyle=1;fontSize=20;strokeWidth=2;fillColor=#d5e8d4;strokeColor=#82b366;" parent="1" vertex="1">
          <mxGeometry x="1560" y="2800" width="120" height="40" as="geometry" />
        </mxCell>
        <mxCell id="id5l2WUpKiHCcTvq_rWC-13" style="edgeStyle=none;rounded=0;orthogonalLoop=1;jettySize=auto;html=1;exitX=0.5;exitY=1;exitDx=0;exitDy=0;entryX=0.5;entryY=0;entryDx=0;entryDy=0;fontSize=20;endArrow=none;endFill=0;" parent="1" source="id5l2WUpKiHCcTvq_rWC-2" target="id5l2WUpKiHCcTvq_rWC-3" edge="1">
          <mxGeometry relative="1" as="geometry" />
        </mxCell>
        <mxCell id="id5l2WUpKiHCcTvq_rWC-2" value="stmt_list" style="rounded=0;whiteSpace=wrap;html=1;fontStyle=1;fontSize=20;strokeWidth=2;fillColor=#d5e8d4;strokeColor=#82b366;" parent="1" vertex="1">
          <mxGeometry x="1560" y="2880" width="120" height="40" as="geometry" />
        </mxCell>
        <mxCell id="id5l2WUpKiHCcTvq_rWC-14" style="edgeStyle=none;rounded=0;orthogonalLoop=1;jettySize=auto;html=1;exitX=0.5;exitY=1;exitDx=0;exitDy=0;entryX=0.5;entryY=0;entryDx=0;entryDy=0;fontSize=20;endArrow=none;endFill=0;" parent="1" source="id5l2WUpKiHCcTvq_rWC-3" target="id5l2WUpKiHCcTvq_rWC-4" edge="1">
          <mxGeometry relative="1" as="geometry" />
        </mxCell>
        <mxCell id="id5l2WUpKiHCcTvq_rWC-15" style="edgeStyle=none;rounded=0;orthogonalLoop=1;jettySize=auto;html=1;exitX=0.5;exitY=1;exitDx=0;exitDy=0;entryX=0.5;entryY=0;entryDx=0;entryDy=0;fontSize=20;endArrow=none;endFill=0;" parent="1" source="id5l2WUpKiHCcTvq_rWC-3" target="id5l2WUpKiHCcTvq_rWC-5" edge="1">
          <mxGeometry relative="1" as="geometry" />
        </mxCell>
        <mxCell id="id5l2WUpKiHCcTvq_rWC-18" style="edgeStyle=none;rounded=0;orthogonalLoop=1;jettySize=auto;html=1;exitX=0.5;exitY=1;exitDx=0;exitDy=0;entryX=0.5;entryY=0;entryDx=0;entryDy=0;fontSize=20;endArrow=none;endFill=0;" parent="1" source="id5l2WUpKiHCcTvq_rWC-3" target="id5l2WUpKiHCcTvq_rWC-17" edge="1">
          <mxGeometry relative="1" as="geometry" />
        </mxCell>
        <mxCell id="id5l2WUpKiHCcTvq_rWC-3" value="stmt" style="rounded=0;whiteSpace=wrap;html=1;fontStyle=1;fontSize=20;strokeWidth=2;fillColor=#d5e8d4;strokeColor=#82b366;" parent="1" vertex="1">
          <mxGeometry x="1560" y="2960" width="120" height="40" as="geometry" />
        </mxCell>
        <mxCell id="id5l2WUpKiHCcTvq_rWC-21" style="edgeStyle=none;rounded=0;orthogonalLoop=1;jettySize=auto;html=1;exitX=0.5;exitY=1;exitDx=0;exitDy=0;entryX=0.5;entryY=0;entryDx=0;entryDy=0;fontSize=20;endArrow=none;endFill=0;" parent="1" source="id5l2WUpKiHCcTvq_rWC-4" target="id5l2WUpKiHCcTvq_rWC-19" edge="1">
          <mxGeometry relative="1" as="geometry" />
        </mxCell>
        <mxCell id="id5l2WUpKiHCcTvq_rWC-4" value="var" style="rounded=0;whiteSpace=wrap;html=1;fontStyle=1;fontSize=20;strokeWidth=2;fillColor=#d5e8d4;strokeColor=#82b366;" parent="1" vertex="1">
          <mxGeometry x="1440" y="3040" width="120" height="40" as="geometry" />
        </mxCell>
        <mxCell id="id5l2WUpKiHCcTvq_rWC-16" style="edgeStyle=none;rounded=0;orthogonalLoop=1;jettySize=auto;html=1;exitX=0.5;exitY=1;exitDx=0;exitDy=0;entryX=0.5;entryY=0;entryDx=0;entryDy=0;fontSize=20;endArrow=none;endFill=0;" parent="1" source="id5l2WUpKiHCcTvq_rWC-5" target="id5l2WUpKiHCcTvq_rWC-6" edge="1">
          <mxGeometry relative="1" as="geometry" />
        </mxCell>
        <mxCell id="id5l2WUpKiHCcTvq_rWC-5" value="expr" style="rounded=0;whiteSpace=wrap;html=1;fontStyle=1;fontSize=20;strokeWidth=2;fillColor=#d5e8d4;strokeColor=#82b366;" parent="1" vertex="1">
          <mxGeometry x="1680" y="3040" width="120" height="40" as="geometry" />
        </mxCell>
        <mxCell id="id5l2WUpKiHCcTvq_rWC-22" style="edgeStyle=none;rounded=0;orthogonalLoop=1;jettySize=auto;html=1;exitX=0.5;exitY=1;exitDx=0;exitDy=0;entryX=0.5;entryY=0;entryDx=0;entryDy=0;fontSize=20;endArrow=none;endFill=0;" parent="1" source="id5l2WUpKiHCcTvq_rWC-6" target="id5l2WUpKiHCcTvq_rWC-20" edge="1">
          <mxGeometry relative="1" as="geometry" />
        </mxCell>
        <mxCell id="id5l2WUpKiHCcTvq_rWC-6" value="var" style="rounded=0;whiteSpace=wrap;html=1;fontStyle=1;fontSize=20;strokeWidth=2;fillColor=#d5e8d4;strokeColor=#82b366;" parent="1" vertex="1">
          <mxGeometry x="1680" y="3120" width="120" height="40" as="geometry" />
        </mxCell>
        <mxCell id="id5l2WUpKiHCcTvq_rWC-7" value="begin" style="ellipse;whiteSpace=wrap;html=1;strokeWidth=2;fontSize=20;fontStyle=1;fillColor=#f8cecc;strokeColor=#b85450;" parent="1" vertex="1">
          <mxGeometry x="1400" y="2880" width="120" height="40" as="geometry" />
        </mxCell>
        <mxCell id="id5l2WUpKiHCcTvq_rWC-9" value="end" style="ellipse;whiteSpace=wrap;html=1;strokeWidth=2;fontSize=20;fontStyle=1;fillColor=#f8cecc;strokeColor=#b85450;" parent="1" vertex="1">
          <mxGeometry x="1720" y="2880" width="120" height="40" as="geometry" />
        </mxCell>
        <mxCell id="id5l2WUpKiHCcTvq_rWC-17" value="::=" style="ellipse;whiteSpace=wrap;html=1;aspect=fixed;strokeWidth=2;fontSize=20;fontStyle=1;fillColor=#f8cecc;strokeColor=#b85450;" parent="1" vertex="1">
          <mxGeometry x="1600" y="3040" width="40" height="40" as="geometry" />
        </mxCell>
        <mxCell id="id5l2WUpKiHCcTvq_rWC-19" value="A" style="ellipse;whiteSpace=wrap;html=1;aspect=fixed;strokeWidth=2;fontSize=20;fontStyle=1;fillColor=#f8cecc;strokeColor=#b85450;" parent="1" vertex="1">
          <mxGeometry x="1480" y="3120" width="40" height="40" as="geometry" />
        </mxCell>
        <mxCell id="id5l2WUpKiHCcTvq_rWC-20" value="B" style="ellipse;whiteSpace=wrap;html=1;aspect=fixed;strokeWidth=2;fontSize=20;fontStyle=1;fillColor=#f8cecc;strokeColor=#b85450;" parent="1" vertex="1">
          <mxGeometry x="1720" y="3200" width="40" height="40" as="geometry" />
        </mxCell>
        <mxCell id="id5l2WUpKiHCcTvq_rWC-33" style="edgeStyle=none;rounded=0;orthogonalLoop=1;jettySize=auto;html=1;exitX=0.5;exitY=1;exitDx=0;exitDy=0;entryX=0.5;entryY=0;entryDx=0;entryDy=0;fontSize=20;endArrow=none;endFill=0;" parent="1" source="id5l2WUpKiHCcTvq_rWC-23" target="id5l2WUpKiHCcTvq_rWC-24" edge="1">
          <mxGeometry relative="1" as="geometry" />
        </mxCell>
        <mxCell id="id5l2WUpKiHCcTvq_rWC-34" style="edgeStyle=none;rounded=0;orthogonalLoop=1;jettySize=auto;html=1;exitX=0.5;exitY=1;exitDx=0;exitDy=0;entryX=0.5;entryY=0;entryDx=0;entryDy=0;fontSize=20;endArrow=none;endFill=0;" parent="1" source="id5l2WUpKiHCcTvq_rWC-23" target="id5l2WUpKiHCcTvq_rWC-25" edge="1">
          <mxGeometry relative="1" as="geometry" />
        </mxCell>
        <mxCell id="id5l2WUpKiHCcTvq_rWC-46" style="edgeStyle=none;rounded=0;orthogonalLoop=1;jettySize=auto;html=1;exitX=0.5;exitY=1;exitDx=0;exitDy=0;entryX=0.5;entryY=0;entryDx=0;entryDy=0;fontSize=20;endArrow=none;endFill=0;" parent="1" source="id5l2WUpKiHCcTvq_rWC-23" target="id5l2WUpKiHCcTvq_rWC-41" edge="1">
          <mxGeometry relative="1" as="geometry" />
        </mxCell>
        <mxCell id="id5l2WUpKiHCcTvq_rWC-23" value="expr" style="rounded=0;whiteSpace=wrap;html=1;fontStyle=1;fontSize=20;strokeWidth=2;fillColor=#d5e8d4;strokeColor=#82b366;" parent="1" vertex="1">
          <mxGeometry x="1370" y="2120" width="120" height="40" as="geometry" />
        </mxCell>
        <mxCell id="id5l2WUpKiHCcTvq_rWC-35" style="edgeStyle=none;rounded=0;orthogonalLoop=1;jettySize=auto;html=1;exitX=0.5;exitY=1;exitDx=0;exitDy=0;entryX=0.5;entryY=0;entryDx=0;entryDy=0;fontSize=20;endArrow=none;endFill=0;" parent="1" source="id5l2WUpKiHCcTvq_rWC-24" target="id5l2WUpKiHCcTvq_rWC-26" edge="1">
          <mxGeometry relative="1" as="geometry" />
        </mxCell>
        <mxCell id="id5l2WUpKiHCcTvq_rWC-36" style="edgeStyle=none;rounded=0;orthogonalLoop=1;jettySize=auto;html=1;exitX=0.5;exitY=1;exitDx=0;exitDy=0;entryX=0.5;entryY=0;entryDx=0;entryDy=0;fontSize=20;endArrow=none;endFill=0;" parent="1" source="id5l2WUpKiHCcTvq_rWC-24" target="id5l2WUpKiHCcTvq_rWC-27" edge="1">
          <mxGeometry relative="1" as="geometry" />
        </mxCell>
        <mxCell id="id5l2WUpKiHCcTvq_rWC-45" style="edgeStyle=none;rounded=0;orthogonalLoop=1;jettySize=auto;html=1;exitX=0.5;exitY=1;exitDx=0;exitDy=0;entryX=0.5;entryY=0;entryDx=0;entryDy=0;fontSize=20;endArrow=none;endFill=0;" parent="1" source="id5l2WUpKiHCcTvq_rWC-24" target="id5l2WUpKiHCcTvq_rWC-43" edge="1">
          <mxGeometry relative="1" as="geometry" />
        </mxCell>
        <mxCell id="id5l2WUpKiHCcTvq_rWC-24" value="expr" style="rounded=0;whiteSpace=wrap;html=1;fontStyle=1;fontSize=20;strokeWidth=2;fillColor=#d5e8d4;strokeColor=#82b366;" parent="1" vertex="1">
          <mxGeometry x="1210" y="2200" width="120" height="40" as="geometry" />
        </mxCell>
        <mxCell id="id5l2WUpKiHCcTvq_rWC-86" style="edgeStyle=none;rounded=0;orthogonalLoop=1;jettySize=auto;html=1;exitX=0.5;exitY=1;exitDx=0;exitDy=0;entryX=0.5;entryY=0;entryDx=0;entryDy=0;fontSize=20;endArrow=none;endFill=0;" parent="1" source="id5l2WUpKiHCcTvq_rWC-25" target="id5l2WUpKiHCcTvq_rWC-85" edge="1">
          <mxGeometry relative="1" as="geometry" />
        </mxCell>
        <mxCell id="id5l2WUpKiHCcTvq_rWC-25" value="expr" style="rounded=0;whiteSpace=wrap;html=1;fontStyle=1;fontSize=20;strokeWidth=2;fillColor=#d5e8d4;strokeColor=#82b366;" parent="1" vertex="1">
          <mxGeometry x="1530" y="2200" width="120" height="40" as="geometry" />
        </mxCell>
        <mxCell id="id5l2WUpKiHCcTvq_rWC-83" style="edgeStyle=none;rounded=0;orthogonalLoop=1;jettySize=auto;html=1;exitX=0.5;exitY=1;exitDx=0;exitDy=0;entryX=0.5;entryY=0;entryDx=0;entryDy=0;fontSize=20;endArrow=none;endFill=0;" parent="1" source="id5l2WUpKiHCcTvq_rWC-26" target="id5l2WUpKiHCcTvq_rWC-82" edge="1">
          <mxGeometry relative="1" as="geometry" />
        </mxCell>
        <mxCell id="id5l2WUpKiHCcTvq_rWC-26" value="expr" style="rounded=0;whiteSpace=wrap;html=1;fontStyle=1;fontSize=20;strokeWidth=2;fillColor=#d5e8d4;strokeColor=#82b366;" parent="1" vertex="1">
          <mxGeometry x="1090" y="2280" width="120" height="40" as="geometry" />
        </mxCell>
        <mxCell id="id5l2WUpKiHCcTvq_rWC-87" value="" style="edgeStyle=none;rounded=0;orthogonalLoop=1;jettySize=auto;html=1;fontSize=20;endArrow=none;endFill=0;" parent="1" source="id5l2WUpKiHCcTvq_rWC-27" target="id5l2WUpKiHCcTvq_rWC-84" edge="1">
          <mxGeometry relative="1" as="geometry" />
        </mxCell>
        <mxCell id="id5l2WUpKiHCcTvq_rWC-27" value="expr" style="rounded=0;whiteSpace=wrap;html=1;fontStyle=1;fontSize=20;strokeWidth=2;fillColor=#d5e8d4;strokeColor=#82b366;" parent="1" vertex="1">
          <mxGeometry x="1330" y="2280" width="120" height="40" as="geometry" />
        </mxCell>
        <mxCell id="id5l2WUpKiHCcTvq_rWC-37" style="edgeStyle=none;rounded=0;orthogonalLoop=1;jettySize=auto;html=1;exitX=0.5;exitY=1;exitDx=0;exitDy=0;entryX=0.5;entryY=0;entryDx=0;entryDy=0;fontSize=20;endArrow=none;endFill=0;" parent="1" source="id5l2WUpKiHCcTvq_rWC-28" target="id5l2WUpKiHCcTvq_rWC-29" edge="1">
          <mxGeometry relative="1" as="geometry" />
        </mxCell>
        <mxCell id="id5l2WUpKiHCcTvq_rWC-38" style="edgeStyle=none;rounded=0;orthogonalLoop=1;jettySize=auto;html=1;exitX=0.5;exitY=1;exitDx=0;exitDy=0;entryX=0.5;entryY=0;entryDx=0;entryDy=0;fontSize=20;endArrow=none;endFill=0;" parent="1" source="id5l2WUpKiHCcTvq_rWC-28" target="id5l2WUpKiHCcTvq_rWC-30" edge="1">
          <mxGeometry relative="1" as="geometry" />
        </mxCell>
        <mxCell id="id5l2WUpKiHCcTvq_rWC-47" style="edgeStyle=none;rounded=0;orthogonalLoop=1;jettySize=auto;html=1;exitX=0.5;exitY=1;exitDx=0;exitDy=0;entryX=0.5;entryY=0;entryDx=0;entryDy=0;fontSize=20;endArrow=none;endFill=0;" parent="1" source="id5l2WUpKiHCcTvq_rWC-28" target="id5l2WUpKiHCcTvq_rWC-44" edge="1">
          <mxGeometry relative="1" as="geometry" />
        </mxCell>
        <mxCell id="id5l2WUpKiHCcTvq_rWC-28" value="expr" style="rounded=0;whiteSpace=wrap;html=1;fontStyle=1;fontSize=20;strokeWidth=2;fillColor=#d5e8d4;strokeColor=#82b366;" parent="1" vertex="1">
          <mxGeometry x="1880" y="2120" width="120" height="40" as="geometry" />
        </mxCell>
        <mxCell id="id5l2WUpKiHCcTvq_rWC-29" value="expr" style="rounded=0;whiteSpace=wrap;html=1;fontStyle=1;fontSize=20;strokeWidth=2;fillColor=#d5e8d4;strokeColor=#82b366;" parent="1" vertex="1">
          <mxGeometry x="1720" y="2200" width="120" height="40" as="geometry" />
        </mxCell>
        <mxCell id="id5l2WUpKiHCcTvq_rWC-39" style="edgeStyle=none;rounded=0;orthogonalLoop=1;jettySize=auto;html=1;exitX=0.5;exitY=1;exitDx=0;exitDy=0;entryX=0.5;entryY=0;entryDx=0;entryDy=0;fontSize=20;endArrow=none;endFill=0;" parent="1" source="id5l2WUpKiHCcTvq_rWC-30" target="id5l2WUpKiHCcTvq_rWC-31" edge="1">
          <mxGeometry relative="1" as="geometry" />
        </mxCell>
        <mxCell id="id5l2WUpKiHCcTvq_rWC-40" style="edgeStyle=none;rounded=0;orthogonalLoop=1;jettySize=auto;html=1;exitX=0.5;exitY=1;exitDx=0;exitDy=0;entryX=0.5;entryY=0;entryDx=0;entryDy=0;fontSize=20;endArrow=none;endFill=0;" parent="1" source="id5l2WUpKiHCcTvq_rWC-30" target="id5l2WUpKiHCcTvq_rWC-32" edge="1">
          <mxGeometry relative="1" as="geometry" />
        </mxCell>
        <mxCell id="id5l2WUpKiHCcTvq_rWC-48" style="edgeStyle=none;rounded=0;orthogonalLoop=1;jettySize=auto;html=1;exitX=0.5;exitY=1;exitDx=0;exitDy=0;entryX=0.5;entryY=0;entryDx=0;entryDy=0;fontSize=20;endArrow=none;endFill=0;" parent="1" source="id5l2WUpKiHCcTvq_rWC-30" target="id5l2WUpKiHCcTvq_rWC-42" edge="1">
          <mxGeometry relative="1" as="geometry" />
        </mxCell>
        <mxCell id="id5l2WUpKiHCcTvq_rWC-30" value="expr" style="rounded=0;whiteSpace=wrap;html=1;fontStyle=1;fontSize=20;strokeWidth=2;fillColor=#d5e8d4;strokeColor=#82b366;" parent="1" vertex="1">
          <mxGeometry x="2040" y="2200" width="120" height="40" as="geometry" />
        </mxCell>
        <mxCell id="id5l2WUpKiHCcTvq_rWC-31" value="expr" style="rounded=0;whiteSpace=wrap;html=1;fontStyle=1;fontSize=20;strokeWidth=2;fillColor=#d5e8d4;strokeColor=#82b366;" parent="1" vertex="1">
          <mxGeometry x="1920" y="2280" width="120" height="40" as="geometry" />
        </mxCell>
        <mxCell id="id5l2WUpKiHCcTvq_rWC-32" value="expr" style="rounded=0;whiteSpace=wrap;html=1;fontStyle=1;fontSize=20;strokeWidth=2;fillColor=#d5e8d4;strokeColor=#82b366;" parent="1" vertex="1">
          <mxGeometry x="2160" y="2280" width="120" height="40" as="geometry" />
        </mxCell>
        <mxCell id="id5l2WUpKiHCcTvq_rWC-41" value="*" style="ellipse;whiteSpace=wrap;html=1;aspect=fixed;strokeWidth=2;fontSize=20;fontStyle=1;fillColor=#f8cecc;strokeColor=#b85450;" parent="1" vertex="1">
          <mxGeometry x="1410" y="2200" width="40" height="40" as="geometry" />
        </mxCell>
        <mxCell id="id5l2WUpKiHCcTvq_rWC-42" value="*" style="ellipse;whiteSpace=wrap;html=1;aspect=fixed;strokeWidth=2;fontSize=20;fontStyle=1;fillColor=#f8cecc;strokeColor=#b85450;" parent="1" vertex="1">
          <mxGeometry x="2080" y="2280" width="40" height="40" as="geometry" />
        </mxCell>
        <mxCell id="id5l2WUpKiHCcTvq_rWC-43" value="+" style="ellipse;whiteSpace=wrap;html=1;aspect=fixed;strokeWidth=2;fontSize=20;fontStyle=1;fillColor=#f8cecc;strokeColor=#b85450;" parent="1" vertex="1">
          <mxGeometry x="1250" y="2280" width="40" height="40" as="geometry" />
        </mxCell>
        <mxCell id="id5l2WUpKiHCcTvq_rWC-44" value="+" style="ellipse;whiteSpace=wrap;html=1;aspect=fixed;strokeWidth=2;fontSize=20;fontStyle=1;fillColor=#f8cecc;strokeColor=#b85450;" parent="1" vertex="1">
          <mxGeometry x="1920" y="2200" width="40" height="40" as="geometry" />
        </mxCell>
        <mxCell id="id5l2WUpKiHCcTvq_rWC-82" value="num" style="rounded=0;whiteSpace=wrap;html=1;fontStyle=1;fontSize=20;strokeWidth=2;fillColor=#d5e8d4;strokeColor=#82b366;" parent="1" vertex="1">
          <mxGeometry x="1090" y="2360" width="120" height="40" as="geometry" />
        </mxCell>
        <mxCell id="id5l2WUpKiHCcTvq_rWC-84" value="num" style="rounded=0;whiteSpace=wrap;html=1;fontStyle=1;fontSize=20;strokeWidth=2;fillColor=#d5e8d4;strokeColor=#82b366;" parent="1" vertex="1">
          <mxGeometry x="1330" y="2360" width="120" height="40" as="geometry" />
        </mxCell>
        <mxCell id="id5l2WUpKiHCcTvq_rWC-85" value="num" style="rounded=0;whiteSpace=wrap;html=1;fontStyle=1;fontSize=20;strokeWidth=2;fillColor=#d5e8d4;strokeColor=#82b366;" parent="1" vertex="1">
          <mxGeometry x="1530" y="2280" width="120" height="40" as="geometry" />
        </mxCell>
        <mxCell id="id5l2WUpKiHCcTvq_rWC-89" value="" style="edgeStyle=none;rounded=0;orthogonalLoop=1;jettySize=auto;html=1;fontSize=20;endArrow=none;endFill=0;" parent="1" source="id5l2WUpKiHCcTvq_rWC-88" target="id5l2WUpKiHCcTvq_rWC-82" edge="1">
          <mxGeometry relative="1" as="geometry" />
        </mxCell>
        <mxCell id="id5l2WUpKiHCcTvq_rWC-88" value="2" style="ellipse;whiteSpace=wrap;html=1;aspect=fixed;strokeWidth=2;fontSize=20;fontStyle=1;fillColor=#f8cecc;strokeColor=#b85450;" parent="1" vertex="1">
          <mxGeometry x="1130" y="2440" width="40" height="40" as="geometry" />
        </mxCell>
        <mxCell id="id5l2WUpKiHCcTvq_rWC-91" value="" style="edgeStyle=none;rounded=0;orthogonalLoop=1;jettySize=auto;html=1;fontSize=20;endArrow=none;endFill=0;" parent="1" source="id5l2WUpKiHCcTvq_rWC-90" target="id5l2WUpKiHCcTvq_rWC-84" edge="1">
          <mxGeometry relative="1" as="geometry" />
        </mxCell>
        <mxCell id="id5l2WUpKiHCcTvq_rWC-90" value="3" style="ellipse;whiteSpace=wrap;html=1;aspect=fixed;strokeWidth=2;fontSize=20;fontStyle=1;fillColor=#f8cecc;strokeColor=#b85450;" parent="1" vertex="1">
          <mxGeometry x="1370" y="2440" width="40" height="40" as="geometry" />
        </mxCell>
        <mxCell id="id5l2WUpKiHCcTvq_rWC-93" value="" style="edgeStyle=none;rounded=0;orthogonalLoop=1;jettySize=auto;html=1;fontSize=20;endArrow=none;endFill=0;" parent="1" source="id5l2WUpKiHCcTvq_rWC-92" target="id5l2WUpKiHCcTvq_rWC-85" edge="1">
          <mxGeometry relative="1" as="geometry" />
        </mxCell>
        <mxCell id="id5l2WUpKiHCcTvq_rWC-92" value="5" style="ellipse;whiteSpace=wrap;html=1;aspect=fixed;strokeWidth=2;fontSize=20;fontStyle=1;fillColor=#f8cecc;strokeColor=#b85450;" parent="1" vertex="1">
          <mxGeometry x="1570" y="2360" width="40" height="40" as="geometry" />
        </mxCell>
        <mxCell id="id5l2WUpKiHCcTvq_rWC-94" style="edgeStyle=none;rounded=0;orthogonalLoop=1;jettySize=auto;html=1;exitX=0.5;exitY=1;exitDx=0;exitDy=0;entryX=0.5;entryY=0;entryDx=0;entryDy=0;fontSize=20;endArrow=none;endFill=0;" parent="1" target="id5l2WUpKiHCcTvq_rWC-95" edge="1">
          <mxGeometry relative="1" as="geometry">
            <mxPoint x="1780" y="2240" as="sourcePoint" />
          </mxGeometry>
        </mxCell>
        <mxCell id="id5l2WUpKiHCcTvq_rWC-95" value="num" style="rounded=0;whiteSpace=wrap;html=1;fontStyle=1;fontSize=20;strokeWidth=2;fillColor=#d5e8d4;strokeColor=#82b366;" parent="1" vertex="1">
          <mxGeometry x="1720" y="2280" width="120" height="40" as="geometry" />
        </mxCell>
        <mxCell id="id5l2WUpKiHCcTvq_rWC-96" value="" style="edgeStyle=none;rounded=0;orthogonalLoop=1;jettySize=auto;html=1;fontSize=20;endArrow=none;endFill=0;" parent="1" source="id5l2WUpKiHCcTvq_rWC-97" target="id5l2WUpKiHCcTvq_rWC-95" edge="1">
          <mxGeometry relative="1" as="geometry" />
        </mxCell>
        <mxCell id="id5l2WUpKiHCcTvq_rWC-97" value="2" style="ellipse;whiteSpace=wrap;html=1;aspect=fixed;strokeWidth=2;fontSize=20;fontStyle=1;fillColor=#f8cecc;strokeColor=#b85450;" parent="1" vertex="1">
          <mxGeometry x="1760" y="2360" width="40" height="40" as="geometry" />
        </mxCell>
        <mxCell id="id5l2WUpKiHCcTvq_rWC-101" value="" style="edgeStyle=none;rounded=0;orthogonalLoop=1;jettySize=auto;html=1;fontSize=20;endArrow=none;endFill=0;" parent="1" target="id5l2WUpKiHCcTvq_rWC-102" edge="1">
          <mxGeometry relative="1" as="geometry">
            <mxPoint x="1980" y="2320" as="sourcePoint" />
          </mxGeometry>
        </mxCell>
        <mxCell id="id5l2WUpKiHCcTvq_rWC-102" value="num" style="rounded=0;whiteSpace=wrap;html=1;fontStyle=1;fontSize=20;strokeWidth=2;fillColor=#d5e8d4;strokeColor=#82b366;" parent="1" vertex="1">
          <mxGeometry x="1920" y="2360" width="120" height="40" as="geometry" />
        </mxCell>
        <mxCell id="id5l2WUpKiHCcTvq_rWC-103" value="" style="edgeStyle=none;rounded=0;orthogonalLoop=1;jettySize=auto;html=1;fontSize=20;endArrow=none;endFill=0;" parent="1" source="id5l2WUpKiHCcTvq_rWC-104" target="id5l2WUpKiHCcTvq_rWC-102" edge="1">
          <mxGeometry relative="1" as="geometry" />
        </mxCell>
        <mxCell id="id5l2WUpKiHCcTvq_rWC-104" value="3" style="ellipse;whiteSpace=wrap;html=1;aspect=fixed;strokeWidth=2;fontSize=20;fontStyle=1;fillColor=#f8cecc;strokeColor=#b85450;" parent="1" vertex="1">
          <mxGeometry x="1960" y="2440" width="40" height="40" as="geometry" />
        </mxCell>
        <mxCell id="id5l2WUpKiHCcTvq_rWC-105" style="edgeStyle=none;rounded=0;orthogonalLoop=1;jettySize=auto;html=1;exitX=0.5;exitY=1;exitDx=0;exitDy=0;entryX=0.5;entryY=0;entryDx=0;entryDy=0;fontSize=20;endArrow=none;endFill=0;" parent="1" target="id5l2WUpKiHCcTvq_rWC-106" edge="1">
          <mxGeometry relative="1" as="geometry">
            <mxPoint x="2220" y="2320" as="sourcePoint" />
          </mxGeometry>
        </mxCell>
        <mxCell id="id5l2WUpKiHCcTvq_rWC-106" value="num" style="rounded=0;whiteSpace=wrap;html=1;fontStyle=1;fontSize=20;strokeWidth=2;fillColor=#d5e8d4;strokeColor=#82b366;" parent="1" vertex="1">
          <mxGeometry x="2160" y="2360" width="120" height="40" as="geometry" />
        </mxCell>
        <mxCell id="id5l2WUpKiHCcTvq_rWC-107" value="" style="edgeStyle=none;rounded=0;orthogonalLoop=1;jettySize=auto;html=1;fontSize=20;endArrow=none;endFill=0;" parent="1" source="id5l2WUpKiHCcTvq_rWC-108" target="id5l2WUpKiHCcTvq_rWC-106" edge="1">
          <mxGeometry relative="1" as="geometry" />
        </mxCell>
        <mxCell id="id5l2WUpKiHCcTvq_rWC-108" value="5" style="ellipse;whiteSpace=wrap;html=1;aspect=fixed;strokeWidth=2;fontSize=20;fontStyle=1;fillColor=#f8cecc;strokeColor=#b85450;" parent="1" vertex="1">
          <mxGeometry x="2200" y="2440" width="40" height="40" as="geometry" />
        </mxCell>
        <mxCell id="id5l2WUpKiHCcTvq_rWC-116" style="edgeStyle=none;rounded=0;orthogonalLoop=1;jettySize=auto;html=1;exitX=0.5;exitY=1;exitDx=0;exitDy=0;entryX=0.5;entryY=0;entryDx=0;entryDy=0;fontSize=20;endArrow=none;endFill=0;" parent="1" source="id5l2WUpKiHCcTvq_rWC-117" target="id5l2WUpKiHCcTvq_rWC-125" edge="1">
          <mxGeometry relative="1" as="geometry" />
        </mxCell>
        <mxCell id="id5l2WUpKiHCcTvq_rWC-117" value="expr" style="rounded=0;whiteSpace=wrap;html=1;fontStyle=1;fontSize=20;strokeWidth=2;fillColor=#d5e8d4;strokeColor=#82b366;" parent="1" vertex="1">
          <mxGeometry x="1200" y="1560" width="120" height="40" as="geometry" />
        </mxCell>
        <mxCell id="id5l2WUpKiHCcTvq_rWC-120" style="edgeStyle=none;rounded=0;orthogonalLoop=1;jettySize=auto;html=1;exitX=0.5;exitY=1;exitDx=0;exitDy=0;entryX=0.5;entryY=0;entryDx=0;entryDy=0;fontSize=20;endArrow=none;endFill=0;" parent="1" source="id5l2WUpKiHCcTvq_rWC-121" target="id5l2WUpKiHCcTvq_rWC-126" edge="1">
          <mxGeometry relative="1" as="geometry" />
        </mxCell>
        <mxCell id="id5l2WUpKiHCcTvq_rWC-138" value="" style="edgeStyle=none;rounded=0;orthogonalLoop=1;jettySize=auto;html=1;fontSize=20;endArrow=none;endFill=0;" parent="1" source="id5l2WUpKiHCcTvq_rWC-121" target="id5l2WUpKiHCcTvq_rWC-135" edge="1">
          <mxGeometry relative="1" as="geometry" />
        </mxCell>
        <mxCell id="id5l2WUpKiHCcTvq_rWC-121" value="term" style="rounded=0;whiteSpace=wrap;html=1;fontStyle=1;fontSize=20;strokeWidth=2;fillColor=#d5e8d4;strokeColor=#82b366;" parent="1" vertex="1">
          <mxGeometry x="1080" y="1720" width="120" height="40" as="geometry" />
        </mxCell>
        <mxCell id="id5l2WUpKiHCcTvq_rWC-137" style="edgeStyle=none;rounded=0;orthogonalLoop=1;jettySize=auto;html=1;exitX=0.5;exitY=0;exitDx=0;exitDy=0;fontSize=20;endArrow=none;endFill=0;" parent="1" source="id5l2WUpKiHCcTvq_rWC-123" edge="1">
          <mxGeometry relative="1" as="geometry">
            <mxPoint x="1260" y="1600" as="targetPoint" />
          </mxGeometry>
        </mxCell>
        <mxCell id="id5l2WUpKiHCcTvq_rWC-144" style="edgeStyle=none;rounded=0;orthogonalLoop=1;jettySize=auto;html=1;exitX=0.5;exitY=1;exitDx=0;exitDy=0;entryX=0.5;entryY=0;entryDx=0;entryDy=0;fontSize=20;endArrow=none;endFill=0;" parent="1" source="id5l2WUpKiHCcTvq_rWC-123" target="id5l2WUpKiHCcTvq_rWC-143" edge="1">
          <mxGeometry relative="1" as="geometry" />
        </mxCell>
        <mxCell id="id5l2WUpKiHCcTvq_rWC-123" value="term" style="rounded=0;whiteSpace=wrap;html=1;fontStyle=1;fontSize=20;strokeWidth=2;fillColor=#d5e8d4;strokeColor=#82b366;" parent="1" vertex="1">
          <mxGeometry x="1400" y="1640" width="120" height="40" as="geometry" />
        </mxCell>
        <mxCell id="id5l2WUpKiHCcTvq_rWC-125" value="+" style="ellipse;whiteSpace=wrap;html=1;aspect=fixed;strokeWidth=2;fontSize=20;fontStyle=1;fillColor=#f8cecc;strokeColor=#b85450;" parent="1" vertex="1">
          <mxGeometry x="1240" y="1640" width="40" height="40" as="geometry" />
        </mxCell>
        <mxCell id="id5l2WUpKiHCcTvq_rWC-142" value="" style="edgeStyle=none;rounded=0;orthogonalLoop=1;jettySize=auto;html=1;fontSize=20;endArrow=none;endFill=0;" parent="1" source="id5l2WUpKiHCcTvq_rWC-126" target="id5l2WUpKiHCcTvq_rWC-139" edge="1">
          <mxGeometry relative="1" as="geometry" />
        </mxCell>
        <mxCell id="id5l2WUpKiHCcTvq_rWC-126" value="fact" style="rounded=0;whiteSpace=wrap;html=1;fontStyle=1;fontSize=20;strokeWidth=2;fillColor=#d5e8d4;strokeColor=#82b366;" parent="1" vertex="1">
          <mxGeometry x="1080" y="1800" width="120" height="40" as="geometry" />
        </mxCell>
        <mxCell id="id5l2WUpKiHCcTvq_rWC-136" style="edgeStyle=none;rounded=0;orthogonalLoop=1;jettySize=auto;html=1;exitX=0.5;exitY=0;exitDx=0;exitDy=0;entryX=0.5;entryY=1;entryDx=0;entryDy=0;fontSize=20;endArrow=none;endFill=0;" parent="1" source="id5l2WUpKiHCcTvq_rWC-135" target="id5l2WUpKiHCcTvq_rWC-117" edge="1">
          <mxGeometry relative="1" as="geometry" />
        </mxCell>
        <mxCell id="id5l2WUpKiHCcTvq_rWC-135" value="expr" style="rounded=0;whiteSpace=wrap;html=1;fontStyle=1;fontSize=20;strokeWidth=2;fillColor=#d5e8d4;strokeColor=#82b366;" parent="1" vertex="1">
          <mxGeometry x="1080" y="1640" width="120" height="40" as="geometry" />
        </mxCell>
        <mxCell id="id5l2WUpKiHCcTvq_rWC-139" value="num" style="rounded=0;whiteSpace=wrap;html=1;fontStyle=1;fontSize=20;strokeWidth=2;fillColor=#d5e8d4;strokeColor=#82b366;" parent="1" vertex="1">
          <mxGeometry x="1080" y="1880" width="120" height="40" as="geometry" />
        </mxCell>
        <mxCell id="id5l2WUpKiHCcTvq_rWC-140" value="" style="edgeStyle=none;rounded=0;orthogonalLoop=1;jettySize=auto;html=1;fontSize=20;endArrow=none;endFill=0;" parent="1" source="id5l2WUpKiHCcTvq_rWC-141" target="id5l2WUpKiHCcTvq_rWC-139" edge="1">
          <mxGeometry relative="1" as="geometry" />
        </mxCell>
        <mxCell id="id5l2WUpKiHCcTvq_rWC-141" value="2" style="ellipse;whiteSpace=wrap;html=1;aspect=fixed;strokeWidth=2;fontSize=20;fontStyle=1;fillColor=#f8cecc;strokeColor=#b85450;" parent="1" vertex="1">
          <mxGeometry x="1120" y="1960" width="40" height="40" as="geometry" />
        </mxCell>
        <mxCell id="id5l2WUpKiHCcTvq_rWC-143" value="term" style="rounded=0;whiteSpace=wrap;html=1;fontStyle=1;fontSize=20;strokeWidth=2;fillColor=#d5e8d4;strokeColor=#82b366;" parent="1" vertex="1">
          <mxGeometry x="1280" y="1720" width="120" height="40" as="geometry" />
        </mxCell>
        <mxCell id="id5l2WUpKiHCcTvq_rWC-145" style="edgeStyle=none;rounded=0;orthogonalLoop=1;jettySize=auto;html=1;exitX=0.5;exitY=1;exitDx=0;exitDy=0;entryX=0.5;entryY=0;entryDx=0;entryDy=0;fontSize=20;endArrow=none;endFill=0;" parent="1" target="id5l2WUpKiHCcTvq_rWC-147" edge="1">
          <mxGeometry relative="1" as="geometry">
            <mxPoint x="1340" y="1760" as="sourcePoint" />
          </mxGeometry>
        </mxCell>
        <mxCell id="id5l2WUpKiHCcTvq_rWC-146" value="" style="edgeStyle=none;rounded=0;orthogonalLoop=1;jettySize=auto;html=1;fontSize=20;endArrow=none;endFill=0;" parent="1" source="id5l2WUpKiHCcTvq_rWC-147" target="id5l2WUpKiHCcTvq_rWC-148" edge="1">
          <mxGeometry relative="1" as="geometry" />
        </mxCell>
        <mxCell id="id5l2WUpKiHCcTvq_rWC-147" value="fact" style="rounded=0;whiteSpace=wrap;html=1;fontStyle=1;fontSize=20;strokeWidth=2;fillColor=#d5e8d4;strokeColor=#82b366;" parent="1" vertex="1">
          <mxGeometry x="1280" y="1800" width="120" height="40" as="geometry" />
        </mxCell>
        <mxCell id="id5l2WUpKiHCcTvq_rWC-148" value="num" style="rounded=0;whiteSpace=wrap;html=1;fontStyle=1;fontSize=20;strokeWidth=2;fillColor=#d5e8d4;strokeColor=#82b366;" parent="1" vertex="1">
          <mxGeometry x="1280" y="1880" width="120" height="40" as="geometry" />
        </mxCell>
        <mxCell id="id5l2WUpKiHCcTvq_rWC-149" value="" style="edgeStyle=none;rounded=0;orthogonalLoop=1;jettySize=auto;html=1;fontSize=20;endArrow=none;endFill=0;" parent="1" source="id5l2WUpKiHCcTvq_rWC-150" target="id5l2WUpKiHCcTvq_rWC-148" edge="1">
          <mxGeometry relative="1" as="geometry" />
        </mxCell>
        <mxCell id="id5l2WUpKiHCcTvq_rWC-150" value="3" style="ellipse;whiteSpace=wrap;html=1;aspect=fixed;strokeWidth=2;fontSize=20;fontStyle=1;fillColor=#f8cecc;strokeColor=#b85450;" parent="1" vertex="1">
          <mxGeometry x="1320" y="1960" width="40" height="40" as="geometry" />
        </mxCell>
        <mxCell id="id5l2WUpKiHCcTvq_rWC-152" value="" style="edgeStyle=none;rounded=0;orthogonalLoop=1;jettySize=auto;html=1;fontSize=20;endArrow=none;endFill=0;" parent="1" source="id5l2WUpKiHCcTvq_rWC-151" target="id5l2WUpKiHCcTvq_rWC-123" edge="1">
          <mxGeometry relative="1" as="geometry" />
        </mxCell>
        <mxCell id="id5l2WUpKiHCcTvq_rWC-151" value="*" style="ellipse;whiteSpace=wrap;html=1;aspect=fixed;strokeWidth=2;fontSize=20;fontStyle=1;fillColor=#f8cecc;strokeColor=#b85450;" parent="1" vertex="1">
          <mxGeometry x="1440" y="1720" width="40" height="40" as="geometry" />
        </mxCell>
        <mxCell id="id5l2WUpKiHCcTvq_rWC-153" value="" style="edgeStyle=none;rounded=0;orthogonalLoop=1;jettySize=auto;html=1;fontSize=20;endArrow=none;endFill=0;" parent="1" source="id5l2WUpKiHCcTvq_rWC-154" target="id5l2WUpKiHCcTvq_rWC-155" edge="1">
          <mxGeometry relative="1" as="geometry" />
        </mxCell>
        <mxCell id="id5l2WUpKiHCcTvq_rWC-158" style="edgeStyle=none;rounded=0;orthogonalLoop=1;jettySize=auto;html=1;exitX=0.5;exitY=0;exitDx=0;exitDy=0;entryX=0.5;entryY=1;entryDx=0;entryDy=0;fontSize=20;endArrow=none;endFill=0;" parent="1" source="id5l2WUpKiHCcTvq_rWC-154" target="id5l2WUpKiHCcTvq_rWC-123" edge="1">
          <mxGeometry relative="1" as="geometry" />
        </mxCell>
        <mxCell id="id5l2WUpKiHCcTvq_rWC-154" value="fact" style="rounded=0;whiteSpace=wrap;html=1;fontStyle=1;fontSize=20;strokeWidth=2;fillColor=#d5e8d4;strokeColor=#82b366;" parent="1" vertex="1">
          <mxGeometry x="1520" y="1720" width="120" height="40" as="geometry" />
        </mxCell>
        <mxCell id="id5l2WUpKiHCcTvq_rWC-155" value="num" style="rounded=0;whiteSpace=wrap;html=1;fontStyle=1;fontSize=20;strokeWidth=2;fillColor=#d5e8d4;strokeColor=#82b366;" parent="1" vertex="1">
          <mxGeometry x="1520" y="1800" width="120" height="40" as="geometry" />
        </mxCell>
        <mxCell id="id5l2WUpKiHCcTvq_rWC-156" value="" style="edgeStyle=none;rounded=0;orthogonalLoop=1;jettySize=auto;html=1;fontSize=20;endArrow=none;endFill=0;" parent="1" source="id5l2WUpKiHCcTvq_rWC-157" target="id5l2WUpKiHCcTvq_rWC-155" edge="1">
          <mxGeometry relative="1" as="geometry" />
        </mxCell>
        <mxCell id="id5l2WUpKiHCcTvq_rWC-157" value="5" style="ellipse;whiteSpace=wrap;html=1;aspect=fixed;strokeWidth=2;fontSize=20;fontStyle=1;fillColor=#f8cecc;strokeColor=#b85450;" parent="1" vertex="1">
          <mxGeometry x="1560" y="1880" width="40" height="40" as="geometry" />
        </mxCell>
        <mxCell id="c9PHAYl3IUOf0SAELbv0-1" value="&amp;lt;stmt&amp;gt; = if a&amp;gt;5 then if a&amp;lt;10 then b=2 else b=3" style="text;html=1;strokeColor=none;fillColor=none;align=center;verticalAlign=middle;whiteSpace=wrap;rounded=0;fontStyle=1;fontSize=20;" parent="1" vertex="1">
          <mxGeometry x="1020" y="840" width="460" height="40" as="geometry" />
        </mxCell>
        <mxCell id="c9PHAYl3IUOf0SAELbv0-8" style="rounded=0;orthogonalLoop=1;jettySize=auto;html=1;entryX=0.5;entryY=1;entryDx=0;entryDy=0;dashed=1;strokeWidth=3;strokeColor=#FF0000;exitX=0;exitY=0.5;exitDx=0;exitDy=0;" parent="1" source="c9PHAYl3IUOf0SAELbv0-2" target="c9PHAYl3IUOf0SAELbv0-1" edge="1">
          <mxGeometry relative="1" as="geometry" />
        </mxCell>
        <mxCell id="c9PHAYl3IUOf0SAELbv0-11" style="rounded=0;orthogonalLoop=1;jettySize=auto;html=1;exitX=0.5;exitY=1;exitDx=0;exitDy=0;entryX=0.5;entryY=0;entryDx=0;entryDy=0;endArrow=none;endFill=0;" parent="1" source="c9PHAYl3IUOf0SAELbv0-2" target="c9PHAYl3IUOf0SAELbv0-3" edge="1">
          <mxGeometry relative="1" as="geometry" />
        </mxCell>
        <mxCell id="c9PHAYl3IUOf0SAELbv0-12" style="rounded=0;orthogonalLoop=1;jettySize=auto;html=1;exitX=0.5;exitY=1;exitDx=0;exitDy=0;entryX=0.5;entryY=0;entryDx=0;entryDy=0;endArrow=none;endFill=0;" parent="1" source="c9PHAYl3IUOf0SAELbv0-2" target="c9PHAYl3IUOf0SAELbv0-6" edge="1">
          <mxGeometry relative="1" as="geometry" />
        </mxCell>
        <mxCell id="c9PHAYl3IUOf0SAELbv0-13" style="rounded=0;orthogonalLoop=1;jettySize=auto;html=1;exitX=0.5;exitY=1;exitDx=0;exitDy=0;entryX=0.5;entryY=0;entryDx=0;entryDy=0;endArrow=none;endFill=0;" parent="1" source="c9PHAYl3IUOf0SAELbv0-2" target="c9PHAYl3IUOf0SAELbv0-4" edge="1">
          <mxGeometry relative="1" as="geometry" />
        </mxCell>
        <mxCell id="c9PHAYl3IUOf0SAELbv0-14" style="rounded=0;orthogonalLoop=1;jettySize=auto;html=1;exitX=0.5;exitY=1;exitDx=0;exitDy=0;entryX=0.5;entryY=0;entryDx=0;entryDy=0;endArrow=none;endFill=0;" parent="1" source="c9PHAYl3IUOf0SAELbv0-2" target="c9PHAYl3IUOf0SAELbv0-7" edge="1">
          <mxGeometry relative="1" as="geometry" />
        </mxCell>
        <mxCell id="c9PHAYl3IUOf0SAELbv0-2" value="&amp;lt;stmt&amp;gt;" style="rounded=0;whiteSpace=wrap;html=1;fontStyle=1;fontSize=20;fillColor=#d5e8d4;strokeColor=#82b366;" parent="1" vertex="1">
          <mxGeometry x="1320" y="920" width="80" height="40" as="geometry" />
        </mxCell>
        <mxCell id="c9PHAYl3IUOf0SAELbv0-3" value="if" style="ellipse;whiteSpace=wrap;html=1;aspect=fixed;fontStyle=1;fontSize=20;fillColor=#f8cecc;strokeColor=#b85450;" parent="1" vertex="1">
          <mxGeometry x="1190" y="1020" width="60" height="60" as="geometry" />
        </mxCell>
        <mxCell id="c9PHAYl3IUOf0SAELbv0-4" value="then" style="ellipse;whiteSpace=wrap;html=1;aspect=fixed;fontStyle=1;fontSize=20;fillColor=#f8cecc;strokeColor=#b85450;" parent="1" vertex="1">
          <mxGeometry x="1370" y="1020" width="60" height="60" as="geometry" />
        </mxCell>
        <mxCell id="c9PHAYl3IUOf0SAELbv0-5" value="else" style="ellipse;whiteSpace=wrap;html=1;aspect=fixed;fontStyle=1;fontSize=20;fillColor=#f8cecc;strokeColor=#b85450;" parent="1" vertex="1">
          <mxGeometry x="1720" y="1140" width="60" height="60" as="geometry" />
        </mxCell>
        <mxCell id="c9PHAYl3IUOf0SAELbv0-31" style="edgeStyle=orthogonalEdgeStyle;rounded=0;orthogonalLoop=1;jettySize=auto;html=1;exitX=0.5;exitY=1;exitDx=0;exitDy=0;entryX=0.5;entryY=0;entryDx=0;entryDy=0;endArrow=none;endFill=0;" parent="1" source="c9PHAYl3IUOf0SAELbv0-6" target="c9PHAYl3IUOf0SAELbv0-27" edge="1">
          <mxGeometry relative="1" as="geometry" />
        </mxCell>
        <mxCell id="gCdMSEEm1G6-j2uQxPML-53" style="rounded=0;orthogonalLoop=1;jettySize=auto;html=1;exitX=0;exitY=0.25;exitDx=0;exitDy=0;entryX=0.5;entryY=0;entryDx=0;entryDy=0;dashed=1;strokeWidth=3;strokeColor=#FF0000;" parent="1" source="c9PHAYl3IUOf0SAELbv0-6" target="gCdMSEEm1G6-j2uQxPML-52" edge="1">
          <mxGeometry relative="1" as="geometry" />
        </mxCell>
        <mxCell id="c9PHAYl3IUOf0SAELbv0-6" value="&amp;lt;cond&amp;gt;" style="rounded=0;whiteSpace=wrap;html=1;fontStyle=1;fontSize=20;fillColor=#d5e8d4;strokeColor=#82b366;" parent="1" vertex="1">
          <mxGeometry x="1270" y="1030" width="80" height="40" as="geometry" />
        </mxCell>
        <mxCell id="c9PHAYl3IUOf0SAELbv0-9" style="rounded=0;orthogonalLoop=1;jettySize=auto;html=1;exitX=1;exitY=0.5;exitDx=0;exitDy=0;dashed=1;strokeWidth=3;entryX=0.5;entryY=1;entryDx=0;entryDy=0;strokeColor=#FF0000;" parent="1" source="c9PHAYl3IUOf0SAELbv0-7" target="c9PHAYl3IUOf0SAELbv0-10" edge="1">
          <mxGeometry relative="1" as="geometry">
            <mxPoint x="1760" y="880" as="targetPoint" />
          </mxGeometry>
        </mxCell>
        <mxCell id="c9PHAYl3IUOf0SAELbv0-21" style="rounded=0;orthogonalLoop=1;jettySize=auto;html=1;exitX=0.5;exitY=1;exitDx=0;exitDy=0;entryX=0.5;entryY=0;entryDx=0;entryDy=0;endArrow=none;endFill=0;" parent="1" source="c9PHAYl3IUOf0SAELbv0-7" target="c9PHAYl3IUOf0SAELbv0-15" edge="1">
          <mxGeometry relative="1" as="geometry" />
        </mxCell>
        <mxCell id="c9PHAYl3IUOf0SAELbv0-22" style="rounded=0;orthogonalLoop=1;jettySize=auto;html=1;exitX=0.5;exitY=1;exitDx=0;exitDy=0;entryX=0.5;entryY=0;entryDx=0;entryDy=0;endArrow=none;endFill=0;" parent="1" source="c9PHAYl3IUOf0SAELbv0-7" target="c9PHAYl3IUOf0SAELbv0-16" edge="1">
          <mxGeometry relative="1" as="geometry" />
        </mxCell>
        <mxCell id="c9PHAYl3IUOf0SAELbv0-23" style="rounded=0;orthogonalLoop=1;jettySize=auto;html=1;exitX=0.5;exitY=1;exitDx=0;exitDy=0;entryX=0.5;entryY=0;entryDx=0;entryDy=0;endArrow=none;endFill=0;" parent="1" source="c9PHAYl3IUOf0SAELbv0-7" target="c9PHAYl3IUOf0SAELbv0-17" edge="1">
          <mxGeometry relative="1" as="geometry" />
        </mxCell>
        <mxCell id="c9PHAYl3IUOf0SAELbv0-24" style="rounded=0;orthogonalLoop=1;jettySize=auto;html=1;exitX=0.5;exitY=1;exitDx=0;exitDy=0;entryX=0.5;entryY=0;entryDx=0;entryDy=0;endArrow=none;endFill=0;" parent="1" source="c9PHAYl3IUOf0SAELbv0-7" target="c9PHAYl3IUOf0SAELbv0-18" edge="1">
          <mxGeometry relative="1" as="geometry" />
        </mxCell>
        <mxCell id="c9PHAYl3IUOf0SAELbv0-25" style="rounded=0;orthogonalLoop=1;jettySize=auto;html=1;exitX=0.5;exitY=1;exitDx=0;exitDy=0;entryX=0.5;entryY=0;entryDx=0;entryDy=0;endArrow=none;endFill=0;" parent="1" source="c9PHAYl3IUOf0SAELbv0-7" target="c9PHAYl3IUOf0SAELbv0-5" edge="1">
          <mxGeometry relative="1" as="geometry" />
        </mxCell>
        <mxCell id="c9PHAYl3IUOf0SAELbv0-26" style="rounded=0;orthogonalLoop=1;jettySize=auto;html=1;exitX=0.5;exitY=1;exitDx=0;exitDy=0;entryX=0.5;entryY=0;entryDx=0;entryDy=0;endArrow=none;endFill=0;" parent="1" source="c9PHAYl3IUOf0SAELbv0-7" target="c9PHAYl3IUOf0SAELbv0-20" edge="1">
          <mxGeometry relative="1" as="geometry" />
        </mxCell>
        <mxCell id="c9PHAYl3IUOf0SAELbv0-7" value="&amp;lt;stmt&amp;gt;" style="rounded=0;whiteSpace=wrap;html=1;fontStyle=1;fontSize=20;fillColor=#d5e8d4;strokeColor=#82b366;" parent="1" vertex="1">
          <mxGeometry x="1450" y="1030" width="80" height="40" as="geometry" />
        </mxCell>
        <mxCell id="c9PHAYl3IUOf0SAELbv0-10" value="&amp;lt;stmt&amp;gt; = if a&amp;lt;10 then b=2 else b=3" style="text;html=1;strokeColor=none;fillColor=none;align=center;verticalAlign=middle;whiteSpace=wrap;rounded=0;fontStyle=1;fontSize=20;" parent="1" vertex="1">
          <mxGeometry x="1510" y="840" width="330" height="40" as="geometry" />
        </mxCell>
        <mxCell id="c9PHAYl3IUOf0SAELbv0-15" value="if" style="ellipse;whiteSpace=wrap;html=1;aspect=fixed;fontStyle=1;fontSize=20;fillColor=#f8cecc;strokeColor=#b85450;" parent="1" vertex="1">
          <mxGeometry x="1360" y="1140" width="60" height="60" as="geometry" />
        </mxCell>
        <mxCell id="c9PHAYl3IUOf0SAELbv0-32" style="edgeStyle=orthogonalEdgeStyle;rounded=0;orthogonalLoop=1;jettySize=auto;html=1;exitX=0.5;exitY=1;exitDx=0;exitDy=0;entryX=0.5;entryY=0;entryDx=0;entryDy=0;endArrow=none;endFill=0;" parent="1" source="c9PHAYl3IUOf0SAELbv0-16" target="c9PHAYl3IUOf0SAELbv0-28" edge="1">
          <mxGeometry relative="1" as="geometry" />
        </mxCell>
        <mxCell id="gCdMSEEm1G6-j2uQxPML-38" style="rounded=0;orthogonalLoop=1;jettySize=auto;html=1;exitX=0;exitY=0.5;exitDx=0;exitDy=0;strokeWidth=3;dashed=1;strokeColor=#FF0000;entryX=0.5;entryY=0;entryDx=0;entryDy=0;" parent="1" source="c9PHAYl3IUOf0SAELbv0-16" target="gCdMSEEm1G6-j2uQxPML-39" edge="1">
          <mxGeometry relative="1" as="geometry">
            <mxPoint x="1360" y="1280" as="targetPoint" />
          </mxGeometry>
        </mxCell>
        <mxCell id="c9PHAYl3IUOf0SAELbv0-16" value="&amp;lt;stmt&amp;gt;" style="rounded=0;whiteSpace=wrap;html=1;fontStyle=1;fontSize=20;fillColor=#d5e8d4;strokeColor=#82b366;" parent="1" vertex="1">
          <mxGeometry x="1440" y="1150" width="80" height="40" as="geometry" />
        </mxCell>
        <mxCell id="c9PHAYl3IUOf0SAELbv0-17" value="then" style="ellipse;whiteSpace=wrap;html=1;aspect=fixed;fontStyle=1;fontSize=20;fillColor=#f8cecc;strokeColor=#b85450;" parent="1" vertex="1">
          <mxGeometry x="1540" y="1140" width="60" height="60" as="geometry" />
        </mxCell>
        <mxCell id="c9PHAYl3IUOf0SAELbv0-33" style="edgeStyle=orthogonalEdgeStyle;rounded=0;orthogonalLoop=1;jettySize=auto;html=1;exitX=0.5;exitY=1;exitDx=0;exitDy=0;entryX=0.5;entryY=0;entryDx=0;entryDy=0;endArrow=none;endFill=0;" parent="1" source="c9PHAYl3IUOf0SAELbv0-18" target="c9PHAYl3IUOf0SAELbv0-29" edge="1">
          <mxGeometry relative="1" as="geometry" />
        </mxCell>
        <mxCell id="gCdMSEEm1G6-j2uQxPML-40" style="rounded=0;orthogonalLoop=1;jettySize=auto;html=1;exitX=0;exitY=0.5;exitDx=0;exitDy=0;strokeWidth=3;dashed=1;strokeColor=#FF0000;entryX=0.5;entryY=0;entryDx=0;entryDy=0;" parent="1" source="c9PHAYl3IUOf0SAELbv0-18" target="gCdMSEEm1G6-j2uQxPML-42" edge="1">
          <mxGeometry relative="1" as="geometry">
            <mxPoint x="1560" y="1320" as="targetPoint" />
          </mxGeometry>
        </mxCell>
        <mxCell id="c9PHAYl3IUOf0SAELbv0-18" value="&amp;lt;stmt&amp;gt;" style="rounded=0;whiteSpace=wrap;html=1;fontStyle=1;fontSize=20;fillColor=#d5e8d4;strokeColor=#82b366;" parent="1" vertex="1">
          <mxGeometry x="1620" y="1150" width="80" height="40" as="geometry" />
        </mxCell>
        <mxCell id="c9PHAYl3IUOf0SAELbv0-34" style="edgeStyle=orthogonalEdgeStyle;rounded=0;orthogonalLoop=1;jettySize=auto;html=1;exitX=0.5;exitY=1;exitDx=0;exitDy=0;entryX=0.5;entryY=0;entryDx=0;entryDy=0;endArrow=none;endFill=0;" parent="1" source="c9PHAYl3IUOf0SAELbv0-20" target="c9PHAYl3IUOf0SAELbv0-30" edge="1">
          <mxGeometry relative="1" as="geometry" />
        </mxCell>
        <mxCell id="gCdMSEEm1G6-j2uQxPML-44" style="rounded=0;orthogonalLoop=1;jettySize=auto;html=1;exitX=0;exitY=0.5;exitDx=0;exitDy=0;entryX=0.5;entryY=0;entryDx=0;entryDy=0;strokeWidth=3;dashed=1;strokeColor=#FF0000;" parent="1" source="c9PHAYl3IUOf0SAELbv0-20" target="gCdMSEEm1G6-j2uQxPML-43" edge="1">
          <mxGeometry relative="1" as="geometry" />
        </mxCell>
        <mxCell id="c9PHAYl3IUOf0SAELbv0-20" value="&amp;lt;stmt&amp;gt;" style="rounded=0;whiteSpace=wrap;html=1;fontStyle=1;fontSize=20;fillColor=#d5e8d4;strokeColor=#82b366;" parent="1" vertex="1">
          <mxGeometry x="1800" y="1150" width="80" height="40" as="geometry" />
        </mxCell>
        <mxCell id="c9PHAYl3IUOf0SAELbv0-27" value="&#39;true&#39;&lt;br&gt;or&lt;br&gt;&#39;false&#39;" style="ellipse;whiteSpace=wrap;html=1;aspect=fixed;fontStyle=1;fontSize=20;fillColor=#f8cecc;strokeColor=#b85450;" parent="1" vertex="1">
          <mxGeometry x="1270" y="1140" width="80" height="80" as="geometry" />
        </mxCell>
        <mxCell id="c9PHAYl3IUOf0SAELbv0-28" value="&#39;pass&#39;" style="ellipse;whiteSpace=wrap;html=1;aspect=fixed;fontStyle=1;fontSize=20;fillColor=#f8cecc;strokeColor=#b85450;" parent="1" vertex="1">
          <mxGeometry x="1450" y="1250" width="60" height="60" as="geometry" />
        </mxCell>
        <mxCell id="c9PHAYl3IUOf0SAELbv0-29" value="&#39;pass&#39;" style="ellipse;whiteSpace=wrap;html=1;aspect=fixed;fontStyle=1;fontSize=20;fillColor=#f8cecc;strokeColor=#b85450;" parent="1" vertex="1">
          <mxGeometry x="1630" y="1250" width="60" height="60" as="geometry" />
        </mxCell>
        <mxCell id="c9PHAYl3IUOf0SAELbv0-30" value="&#39;pass&#39;" style="ellipse;whiteSpace=wrap;html=1;aspect=fixed;fontStyle=1;fontSize=20;fillColor=#f8cecc;strokeColor=#b85450;" parent="1" vertex="1">
          <mxGeometry x="1810" y="1250" width="60" height="60" as="geometry" />
        </mxCell>
        <mxCell id="gCdMSEEm1G6-j2uQxPML-1" value="&amp;lt;stmt&amp;gt; = if a&amp;gt;5 then if a&amp;lt;10 then b=2 else b=3" style="text;html=1;strokeColor=none;fillColor=none;align=center;verticalAlign=middle;whiteSpace=wrap;rounded=0;fontStyle=1;fontSize=20;" parent="1" vertex="1">
          <mxGeometry x="1960" y="840" width="460" height="40" as="geometry" />
        </mxCell>
        <mxCell id="gCdMSEEm1G6-j2uQxPML-2" style="rounded=0;orthogonalLoop=1;jettySize=auto;html=1;entryX=0.5;entryY=1;entryDx=0;entryDy=0;dashed=1;strokeWidth=3;strokeColor=#FF0000;exitX=0;exitY=0.5;exitDx=0;exitDy=0;" parent="1" source="gCdMSEEm1G6-j2uQxPML-7" target="gCdMSEEm1G6-j2uQxPML-1" edge="1">
          <mxGeometry relative="1" as="geometry" />
        </mxCell>
        <mxCell id="gCdMSEEm1G6-j2uQxPML-3" style="rounded=0;orthogonalLoop=1;jettySize=auto;html=1;exitX=0.5;exitY=1;exitDx=0;exitDy=0;entryX=0.5;entryY=0;entryDx=0;entryDy=0;endArrow=none;endFill=0;" parent="1" source="gCdMSEEm1G6-j2uQxPML-7" target="gCdMSEEm1G6-j2uQxPML-8" edge="1">
          <mxGeometry relative="1" as="geometry" />
        </mxCell>
        <mxCell id="gCdMSEEm1G6-j2uQxPML-4" style="rounded=0;orthogonalLoop=1;jettySize=auto;html=1;exitX=0.5;exitY=1;exitDx=0;exitDy=0;entryX=0.5;entryY=0;entryDx=0;entryDy=0;endArrow=none;endFill=0;" parent="1" source="gCdMSEEm1G6-j2uQxPML-7" target="gCdMSEEm1G6-j2uQxPML-12" edge="1">
          <mxGeometry relative="1" as="geometry" />
        </mxCell>
        <mxCell id="gCdMSEEm1G6-j2uQxPML-5" style="rounded=0;orthogonalLoop=1;jettySize=auto;html=1;exitX=0.5;exitY=1;exitDx=0;exitDy=0;entryX=0.5;entryY=0;entryDx=0;entryDy=0;endArrow=none;endFill=0;" parent="1" source="gCdMSEEm1G6-j2uQxPML-7" target="gCdMSEEm1G6-j2uQxPML-9" edge="1">
          <mxGeometry relative="1" as="geometry" />
        </mxCell>
        <mxCell id="gCdMSEEm1G6-j2uQxPML-6" style="rounded=0;orthogonalLoop=1;jettySize=auto;html=1;exitX=0.5;exitY=1;exitDx=0;exitDy=0;entryX=0.5;entryY=0;entryDx=0;entryDy=0;endArrow=none;endFill=0;" parent="1" source="gCdMSEEm1G6-j2uQxPML-7" target="gCdMSEEm1G6-j2uQxPML-20" edge="1">
          <mxGeometry relative="1" as="geometry" />
        </mxCell>
        <mxCell id="gCdMSEEm1G6-j2uQxPML-35" style="rounded=0;orthogonalLoop=1;jettySize=auto;html=1;exitX=0.5;exitY=1;exitDx=0;exitDy=0;entryX=0.5;entryY=0;entryDx=0;entryDy=0;endArrow=none;endFill=0;" parent="1" source="gCdMSEEm1G6-j2uQxPML-7" target="gCdMSEEm1G6-j2uQxPML-10" edge="1">
          <mxGeometry relative="1" as="geometry" />
        </mxCell>
        <mxCell id="gCdMSEEm1G6-j2uQxPML-36" style="rounded=0;orthogonalLoop=1;jettySize=auto;html=1;exitX=0.5;exitY=1;exitDx=0;exitDy=0;entryX=0.5;entryY=0;entryDx=0;entryDy=0;endArrow=none;endFill=0;" parent="1" source="gCdMSEEm1G6-j2uQxPML-7" target="gCdMSEEm1G6-j2uQxPML-29" edge="1">
          <mxGeometry relative="1" as="geometry" />
        </mxCell>
        <mxCell id="gCdMSEEm1G6-j2uQxPML-7" value="&amp;lt;stmt&amp;gt;" style="rounded=0;whiteSpace=wrap;html=1;fontStyle=1;fontSize=20;fillColor=#d5e8d4;strokeColor=#82b366;" parent="1" vertex="1">
          <mxGeometry x="2260" y="920" width="80" height="40" as="geometry" />
        </mxCell>
        <mxCell id="gCdMSEEm1G6-j2uQxPML-8" value="if" style="ellipse;whiteSpace=wrap;html=1;aspect=fixed;fontStyle=1;fontSize=20;fillColor=#f8cecc;strokeColor=#b85450;" parent="1" vertex="1">
          <mxGeometry x="2130" y="1020" width="60" height="60" as="geometry" />
        </mxCell>
        <mxCell id="gCdMSEEm1G6-j2uQxPML-9" value="then" style="ellipse;whiteSpace=wrap;html=1;aspect=fixed;fontStyle=1;fontSize=20;fillColor=#f8cecc;strokeColor=#b85450;" parent="1" vertex="1">
          <mxGeometry x="2310" y="1020" width="60" height="60" as="geometry" />
        </mxCell>
        <mxCell id="gCdMSEEm1G6-j2uQxPML-10" value="else" style="ellipse;whiteSpace=wrap;html=1;aspect=fixed;fontStyle=1;fontSize=20;fillColor=#f8cecc;strokeColor=#b85450;" parent="1" vertex="1">
          <mxGeometry x="2570" y="1020" width="60" height="60" as="geometry" />
        </mxCell>
        <mxCell id="gCdMSEEm1G6-j2uQxPML-11" style="edgeStyle=orthogonalEdgeStyle;rounded=0;orthogonalLoop=1;jettySize=auto;html=1;exitX=0.5;exitY=1;exitDx=0;exitDy=0;entryX=0.5;entryY=0;entryDx=0;entryDy=0;endArrow=none;endFill=0;" parent="1" source="gCdMSEEm1G6-j2uQxPML-12" edge="1">
          <mxGeometry relative="1" as="geometry">
            <mxPoint x="2250" y="1140" as="targetPoint" />
          </mxGeometry>
        </mxCell>
        <mxCell id="gCdMSEEm1G6-j2uQxPML-12" value="&amp;lt;cond&amp;gt;" style="rounded=0;whiteSpace=wrap;html=1;fontStyle=1;fontSize=20;fillColor=#d5e8d4;strokeColor=#82b366;" parent="1" vertex="1">
          <mxGeometry x="2210" y="1030" width="80" height="40" as="geometry" />
        </mxCell>
        <mxCell id="gCdMSEEm1G6-j2uQxPML-13" style="rounded=0;orthogonalLoop=1;jettySize=auto;html=1;exitX=1;exitY=0.5;exitDx=0;exitDy=0;dashed=1;strokeWidth=3;entryX=0.5;entryY=1;entryDx=0;entryDy=0;strokeColor=#FF0000;" parent="1" source="gCdMSEEm1G6-j2uQxPML-20" target="gCdMSEEm1G6-j2uQxPML-21" edge="1">
          <mxGeometry relative="1" as="geometry">
            <mxPoint x="2700" y="880" as="targetPoint" />
          </mxGeometry>
        </mxCell>
        <mxCell id="gCdMSEEm1G6-j2uQxPML-14" style="rounded=0;orthogonalLoop=1;jettySize=auto;html=1;exitX=0.5;exitY=1;exitDx=0;exitDy=0;entryX=0.5;entryY=0;entryDx=0;entryDy=0;endArrow=none;endFill=0;" parent="1" source="gCdMSEEm1G6-j2uQxPML-20" target="gCdMSEEm1G6-j2uQxPML-22" edge="1">
          <mxGeometry relative="1" as="geometry" />
        </mxCell>
        <mxCell id="gCdMSEEm1G6-j2uQxPML-15" style="rounded=0;orthogonalLoop=1;jettySize=auto;html=1;exitX=0.5;exitY=1;exitDx=0;exitDy=0;entryX=0.5;entryY=0;entryDx=0;entryDy=0;endArrow=none;endFill=0;" parent="1" source="gCdMSEEm1G6-j2uQxPML-20" target="gCdMSEEm1G6-j2uQxPML-24" edge="1">
          <mxGeometry relative="1" as="geometry" />
        </mxCell>
        <mxCell id="gCdMSEEm1G6-j2uQxPML-16" style="rounded=0;orthogonalLoop=1;jettySize=auto;html=1;exitX=0.5;exitY=1;exitDx=0;exitDy=0;entryX=0.5;entryY=0;entryDx=0;entryDy=0;endArrow=none;endFill=0;" parent="1" source="gCdMSEEm1G6-j2uQxPML-20" target="gCdMSEEm1G6-j2uQxPML-25" edge="1">
          <mxGeometry relative="1" as="geometry" />
        </mxCell>
        <mxCell id="gCdMSEEm1G6-j2uQxPML-17" style="rounded=0;orthogonalLoop=1;jettySize=auto;html=1;exitX=0.5;exitY=1;exitDx=0;exitDy=0;entryX=0.5;entryY=0;entryDx=0;entryDy=0;endArrow=none;endFill=0;" parent="1" source="gCdMSEEm1G6-j2uQxPML-20" target="gCdMSEEm1G6-j2uQxPML-27" edge="1">
          <mxGeometry relative="1" as="geometry" />
        </mxCell>
        <mxCell id="gCdMSEEm1G6-j2uQxPML-20" value="&amp;lt;stmt&amp;gt;" style="rounded=0;whiteSpace=wrap;html=1;fontStyle=1;fontSize=20;fillColor=#d5e8d4;strokeColor=#82b366;" parent="1" vertex="1">
          <mxGeometry x="2390" y="1030" width="80" height="40" as="geometry" />
        </mxCell>
        <mxCell id="gCdMSEEm1G6-j2uQxPML-21" value="&amp;lt;stmt&amp;gt; = if a&amp;lt;10 then b=2" style="text;html=1;strokeColor=none;fillColor=none;align=center;verticalAlign=middle;whiteSpace=wrap;rounded=0;fontStyle=1;fontSize=20;" parent="1" vertex="1">
          <mxGeometry x="2440" y="840" width="250" height="40" as="geometry" />
        </mxCell>
        <mxCell id="gCdMSEEm1G6-j2uQxPML-22" value="if" style="ellipse;whiteSpace=wrap;html=1;aspect=fixed;fontStyle=1;fontSize=20;fillColor=#f8cecc;strokeColor=#b85450;" parent="1" vertex="1">
          <mxGeometry x="2300" y="1140" width="60" height="60" as="geometry" />
        </mxCell>
        <mxCell id="gCdMSEEm1G6-j2uQxPML-23" style="edgeStyle=orthogonalEdgeStyle;rounded=0;orthogonalLoop=1;jettySize=auto;html=1;exitX=0.5;exitY=1;exitDx=0;exitDy=0;entryX=0.5;entryY=0;entryDx=0;entryDy=0;endArrow=none;endFill=0;" parent="1" source="gCdMSEEm1G6-j2uQxPML-24" target="gCdMSEEm1G6-j2uQxPML-31" edge="1">
          <mxGeometry relative="1" as="geometry" />
        </mxCell>
        <mxCell id="gCdMSEEm1G6-j2uQxPML-46" style="rounded=0;orthogonalLoop=1;jettySize=auto;html=1;exitX=0;exitY=0.5;exitDx=0;exitDy=0;entryX=0.5;entryY=0;entryDx=0;entryDy=0;strokeWidth=3;dashed=1;strokeColor=#FF0000;" parent="1" source="gCdMSEEm1G6-j2uQxPML-24" target="gCdMSEEm1G6-j2uQxPML-45" edge="1">
          <mxGeometry relative="1" as="geometry" />
        </mxCell>
        <mxCell id="gCdMSEEm1G6-j2uQxPML-24" value="&amp;lt;stmt&amp;gt;" style="rounded=0;whiteSpace=wrap;html=1;fontStyle=1;fontSize=20;fillColor=#d5e8d4;strokeColor=#82b366;" parent="1" vertex="1">
          <mxGeometry x="2380" y="1150" width="80" height="40" as="geometry" />
        </mxCell>
        <mxCell id="gCdMSEEm1G6-j2uQxPML-25" value="then" style="ellipse;whiteSpace=wrap;html=1;aspect=fixed;fontStyle=1;fontSize=20;fillColor=#f8cecc;strokeColor=#b85450;" parent="1" vertex="1">
          <mxGeometry x="2480" y="1140" width="60" height="60" as="geometry" />
        </mxCell>
        <mxCell id="gCdMSEEm1G6-j2uQxPML-26" style="edgeStyle=orthogonalEdgeStyle;rounded=0;orthogonalLoop=1;jettySize=auto;html=1;exitX=0.5;exitY=1;exitDx=0;exitDy=0;entryX=0.5;entryY=0;entryDx=0;entryDy=0;endArrow=none;endFill=0;" parent="1" source="gCdMSEEm1G6-j2uQxPML-27" target="gCdMSEEm1G6-j2uQxPML-32" edge="1">
          <mxGeometry relative="1" as="geometry" />
        </mxCell>
        <mxCell id="gCdMSEEm1G6-j2uQxPML-48" style="rounded=0;orthogonalLoop=1;jettySize=auto;html=1;exitX=0;exitY=0.5;exitDx=0;exitDy=0;entryX=0.5;entryY=0;entryDx=0;entryDy=0;strokeWidth=3;dashed=1;strokeColor=#FF0000;" parent="1" source="gCdMSEEm1G6-j2uQxPML-27" target="gCdMSEEm1G6-j2uQxPML-47" edge="1">
          <mxGeometry relative="1" as="geometry" />
        </mxCell>
        <mxCell id="gCdMSEEm1G6-j2uQxPML-27" value="&amp;lt;stmt&amp;gt;" style="rounded=0;whiteSpace=wrap;html=1;fontStyle=1;fontSize=20;fillColor=#d5e8d4;strokeColor=#82b366;" parent="1" vertex="1">
          <mxGeometry x="2560" y="1150" width="80" height="40" as="geometry" />
        </mxCell>
        <mxCell id="gCdMSEEm1G6-j2uQxPML-28" style="edgeStyle=orthogonalEdgeStyle;rounded=0;orthogonalLoop=1;jettySize=auto;html=1;exitX=0.5;exitY=1;exitDx=0;exitDy=0;entryX=0.5;entryY=0;entryDx=0;entryDy=0;endArrow=none;endFill=0;" parent="1" source="gCdMSEEm1G6-j2uQxPML-29" target="gCdMSEEm1G6-j2uQxPML-33" edge="1">
          <mxGeometry relative="1" as="geometry" />
        </mxCell>
        <mxCell id="gCdMSEEm1G6-j2uQxPML-50" style="rounded=0;orthogonalLoop=1;jettySize=auto;html=1;exitX=1;exitY=0.5;exitDx=0;exitDy=0;entryX=0.5;entryY=1;entryDx=0;entryDy=0;strokeWidth=3;dashed=1;strokeColor=#FF0000;" parent="1" source="gCdMSEEm1G6-j2uQxPML-29" target="gCdMSEEm1G6-j2uQxPML-49" edge="1">
          <mxGeometry relative="1" as="geometry" />
        </mxCell>
        <mxCell id="gCdMSEEm1G6-j2uQxPML-29" value="&amp;lt;stmt&amp;gt;" style="rounded=0;whiteSpace=wrap;html=1;fontStyle=1;fontSize=20;fillColor=#d5e8d4;strokeColor=#82b366;" parent="1" vertex="1">
          <mxGeometry x="2650" y="1030" width="80" height="40" as="geometry" />
        </mxCell>
        <mxCell id="gCdMSEEm1G6-j2uQxPML-31" value="&#39;pass&#39;" style="ellipse;whiteSpace=wrap;html=1;aspect=fixed;fontStyle=1;fontSize=20;fillColor=#f8cecc;strokeColor=#b85450;" parent="1" vertex="1">
          <mxGeometry x="2390" y="1250" width="60" height="60" as="geometry" />
        </mxCell>
        <mxCell id="gCdMSEEm1G6-j2uQxPML-32" value="&#39;pass&#39;" style="ellipse;whiteSpace=wrap;html=1;aspect=fixed;fontStyle=1;fontSize=20;fillColor=#f8cecc;strokeColor=#b85450;" parent="1" vertex="1">
          <mxGeometry x="2570" y="1250" width="60" height="60" as="geometry" />
        </mxCell>
        <mxCell id="gCdMSEEm1G6-j2uQxPML-33" value="&#39;pass&#39;" style="ellipse;whiteSpace=wrap;html=1;aspect=fixed;fontStyle=1;fontSize=20;fillColor=#f8cecc;strokeColor=#b85450;" parent="1" vertex="1">
          <mxGeometry x="2660" y="1140" width="60" height="60" as="geometry" />
        </mxCell>
        <mxCell id="gCdMSEEm1G6-j2uQxPML-39" value="a&amp;lt;10" style="text;html=1;strokeColor=none;fillColor=none;align=center;verticalAlign=middle;whiteSpace=wrap;rounded=0;fontStyle=1;fontSize=20;" parent="1" vertex="1">
          <mxGeometry x="1330" y="1280" width="60" height="40" as="geometry" />
        </mxCell>
        <mxCell id="gCdMSEEm1G6-j2uQxPML-42" value="b=2" style="text;html=1;strokeColor=none;fillColor=none;align=center;verticalAlign=middle;whiteSpace=wrap;rounded=0;fontStyle=1;fontSize=20;" parent="1" vertex="1">
          <mxGeometry x="1540" y="1280" width="60" height="40" as="geometry" />
        </mxCell>
        <mxCell id="gCdMSEEm1G6-j2uQxPML-43" value="b=3" style="text;html=1;strokeColor=none;fillColor=none;align=center;verticalAlign=middle;whiteSpace=wrap;rounded=0;fontStyle=1;fontSize=20;" parent="1" vertex="1">
          <mxGeometry x="1730" y="1280" width="60" height="40" as="geometry" />
        </mxCell>
        <mxCell id="gCdMSEEm1G6-j2uQxPML-45" value="a&amp;lt;10" style="text;html=1;strokeColor=none;fillColor=none;align=center;verticalAlign=middle;whiteSpace=wrap;rounded=0;fontStyle=1;fontSize=20;" parent="1" vertex="1">
          <mxGeometry x="2320" y="1240" width="60" height="40" as="geometry" />
        </mxCell>
        <mxCell id="gCdMSEEm1G6-j2uQxPML-47" value="b=2" style="text;html=1;strokeColor=none;fillColor=none;align=center;verticalAlign=middle;whiteSpace=wrap;rounded=0;fontStyle=1;fontSize=20;" parent="1" vertex="1">
          <mxGeometry x="2480" y="1240" width="60" height="40" as="geometry" />
        </mxCell>
        <mxCell id="gCdMSEEm1G6-j2uQxPML-49" value="b=3" style="text;html=1;strokeColor=none;fillColor=none;align=center;verticalAlign=middle;whiteSpace=wrap;rounded=0;fontStyle=1;fontSize=20;" parent="1" vertex="1">
          <mxGeometry x="2720" y="920" width="60" height="40" as="geometry" />
        </mxCell>
        <mxCell id="gCdMSEEm1G6-j2uQxPML-52" value="a&amp;gt;5" style="text;html=1;strokeColor=none;fillColor=none;align=center;verticalAlign=middle;whiteSpace=wrap;rounded=0;fontStyle=1;fontSize=20;" parent="1" vertex="1">
          <mxGeometry x="1210" y="1100" width="60" height="40" as="geometry" />
        </mxCell>
        <mxCell id="gCdMSEEm1G6-j2uQxPML-55" style="rounded=0;orthogonalLoop=1;jettySize=auto;html=1;exitX=0;exitY=0.25;exitDx=0;exitDy=0;entryX=0.5;entryY=0;entryDx=0;entryDy=0;dashed=1;strokeWidth=3;strokeColor=#FF0000;" parent="1" target="gCdMSEEm1G6-j2uQxPML-56" edge="1">
          <mxGeometry relative="1" as="geometry">
            <mxPoint x="2210" y="1050" as="sourcePoint" />
          </mxGeometry>
        </mxCell>
        <mxCell id="gCdMSEEm1G6-j2uQxPML-56" value="a&amp;gt;5" style="text;html=1;strokeColor=none;fillColor=none;align=center;verticalAlign=middle;whiteSpace=wrap;rounded=0;fontStyle=1;fontSize=20;" parent="1" vertex="1">
          <mxGeometry x="2150" y="1110" width="60" height="40" as="geometry" />
        </mxCell>
        <mxCell id="gCdMSEEm1G6-j2uQxPML-57" value="&#39;true&#39;&lt;br&gt;or&lt;br&gt;&#39;false&#39;" style="ellipse;whiteSpace=wrap;html=1;aspect=fixed;fontStyle=1;fontSize=20;fillColor=#f8cecc;strokeColor=#b85450;" parent="1" vertex="1">
          <mxGeometry x="2210" y="1140" width="80" height="80" as="geometry" />
        </mxCell>
        <mxCell id="s7MwCBMqRwBZ77ZkNdZO-11" style="rounded=0;orthogonalLoop=1;jettySize=auto;html=1;exitX=0.5;exitY=1;exitDx=0;exitDy=0;entryX=0.5;entryY=0;entryDx=0;entryDy=0;strokeWidth=2;endArrow=none;endFill=0;" edge="1" parent="1" source="s7MwCBMqRwBZ77ZkNdZO-1" target="s7MwCBMqRwBZ77ZkNdZO-2">
          <mxGeometry relative="1" as="geometry" />
        </mxCell>
        <mxCell id="s7MwCBMqRwBZ77ZkNdZO-12" style="rounded=0;orthogonalLoop=1;jettySize=auto;html=1;exitX=0.5;exitY=1;exitDx=0;exitDy=0;strokeWidth=2;endArrow=none;endFill=0;entryX=0.5;entryY=0;entryDx=0;entryDy=0;" edge="1" parent="1" source="s7MwCBMqRwBZ77ZkNdZO-1" target="s7MwCBMqRwBZ77ZkNdZO-3">
          <mxGeometry relative="1" as="geometry" />
        </mxCell>
        <mxCell id="s7MwCBMqRwBZ77ZkNdZO-1" value="=" style="ellipse;whiteSpace=wrap;html=1;aspect=fixed;fontStyle=1;fontSize=20;fillColor=#f8cecc;strokeColor=#b85450;" vertex="1" parent="1">
          <mxGeometry x="2410" y="1360" width="60" height="60" as="geometry" />
        </mxCell>
        <mxCell id="s7MwCBMqRwBZ77ZkNdZO-2" value="q" style="ellipse;whiteSpace=wrap;html=1;aspect=fixed;fontStyle=1;fontSize=20;fillColor=#f8cecc;strokeColor=#b85450;" vertex="1" parent="1">
          <mxGeometry x="2260" y="1480" width="60" height="60" as="geometry" />
        </mxCell>
        <mxCell id="s7MwCBMqRwBZ77ZkNdZO-13" style="rounded=0;orthogonalLoop=1;jettySize=auto;html=1;exitX=0.5;exitY=1;exitDx=0;exitDy=0;entryX=0.5;entryY=0;entryDx=0;entryDy=0;strokeWidth=2;endArrow=none;endFill=0;" edge="1" parent="1" source="s7MwCBMqRwBZ77ZkNdZO-3" target="s7MwCBMqRwBZ77ZkNdZO-4">
          <mxGeometry relative="1" as="geometry" />
        </mxCell>
        <mxCell id="s7MwCBMqRwBZ77ZkNdZO-14" style="rounded=0;orthogonalLoop=1;jettySize=auto;html=1;exitX=0.5;exitY=1;exitDx=0;exitDy=0;entryX=0.5;entryY=0;entryDx=0;entryDy=0;strokeWidth=2;endArrow=none;endFill=0;" edge="1" parent="1" source="s7MwCBMqRwBZ77ZkNdZO-3" target="s7MwCBMqRwBZ77ZkNdZO-5">
          <mxGeometry relative="1" as="geometry" />
        </mxCell>
        <mxCell id="s7MwCBMqRwBZ77ZkNdZO-15" style="rounded=0;orthogonalLoop=1;jettySize=auto;html=1;exitX=0.5;exitY=1;exitDx=0;exitDy=0;entryX=0.5;entryY=0;entryDx=0;entryDy=0;strokeWidth=2;endArrow=none;endFill=0;" edge="1" parent="1" source="s7MwCBMqRwBZ77ZkNdZO-3" target="s7MwCBMqRwBZ77ZkNdZO-6">
          <mxGeometry relative="1" as="geometry" />
        </mxCell>
        <mxCell id="s7MwCBMqRwBZ77ZkNdZO-3" value="?:" style="ellipse;whiteSpace=wrap;html=1;aspect=fixed;fontStyle=1;fontSize=20;fillColor=#f8cecc;strokeColor=#b85450;" vertex="1" parent="1">
          <mxGeometry x="2560" y="1480" width="60" height="60" as="geometry" />
        </mxCell>
        <mxCell id="s7MwCBMqRwBZ77ZkNdZO-18" style="rounded=0;orthogonalLoop=1;jettySize=auto;html=1;exitX=0.5;exitY=1;exitDx=0;exitDy=0;entryX=0.5;entryY=0;entryDx=0;entryDy=0;strokeWidth=2;endArrow=none;endFill=0;" edge="1" parent="1" source="s7MwCBMqRwBZ77ZkNdZO-4" target="s7MwCBMqRwBZ77ZkNdZO-7">
          <mxGeometry relative="1" as="geometry" />
        </mxCell>
        <mxCell id="s7MwCBMqRwBZ77ZkNdZO-19" style="rounded=0;orthogonalLoop=1;jettySize=auto;html=1;exitX=0.5;exitY=1;exitDx=0;exitDy=0;entryX=0.5;entryY=0;entryDx=0;entryDy=0;strokeWidth=2;endArrow=none;endFill=0;" edge="1" parent="1" source="s7MwCBMqRwBZ77ZkNdZO-4" target="s7MwCBMqRwBZ77ZkNdZO-8">
          <mxGeometry relative="1" as="geometry" />
        </mxCell>
        <mxCell id="s7MwCBMqRwBZ77ZkNdZO-4" value="!=" style="ellipse;whiteSpace=wrap;html=1;aspect=fixed;fontStyle=1;fontSize=20;fillColor=#f8cecc;strokeColor=#b85450;" vertex="1" parent="1">
          <mxGeometry x="2360" y="1600" width="60" height="60" as="geometry" />
        </mxCell>
        <mxCell id="s7MwCBMqRwBZ77ZkNdZO-16" style="rounded=0;orthogonalLoop=1;jettySize=auto;html=1;exitX=0.5;exitY=1;exitDx=0;exitDy=0;entryX=0.5;entryY=0;entryDx=0;entryDy=0;strokeWidth=2;endArrow=none;endFill=0;" edge="1" parent="1" source="s7MwCBMqRwBZ77ZkNdZO-5" target="s7MwCBMqRwBZ77ZkNdZO-10">
          <mxGeometry relative="1" as="geometry" />
        </mxCell>
        <mxCell id="s7MwCBMqRwBZ77ZkNdZO-17" style="rounded=0;orthogonalLoop=1;jettySize=auto;html=1;exitX=0.5;exitY=1;exitDx=0;exitDy=0;entryX=0.5;entryY=0;entryDx=0;entryDy=0;strokeWidth=2;endArrow=none;endFill=0;" edge="1" parent="1" source="s7MwCBMqRwBZ77ZkNdZO-5" target="s7MwCBMqRwBZ77ZkNdZO-9">
          <mxGeometry relative="1" as="geometry" />
        </mxCell>
        <mxCell id="s7MwCBMqRwBZ77ZkNdZO-5" value="/" style="ellipse;whiteSpace=wrap;html=1;aspect=fixed;fontStyle=1;fontSize=20;fillColor=#f8cecc;strokeColor=#b85450;" vertex="1" parent="1">
          <mxGeometry x="2560" y="1600" width="60" height="60" as="geometry" />
        </mxCell>
        <mxCell id="s7MwCBMqRwBZ77ZkNdZO-6" value="y" style="ellipse;whiteSpace=wrap;html=1;aspect=fixed;fontStyle=1;fontSize=20;fillColor=#f8cecc;strokeColor=#b85450;" vertex="1" parent="1">
          <mxGeometry x="2730" y="1600" width="60" height="60" as="geometry" />
        </mxCell>
        <mxCell id="s7MwCBMqRwBZ77ZkNdZO-7" value="x" style="ellipse;whiteSpace=wrap;html=1;aspect=fixed;fontStyle=1;fontSize=20;fillColor=#f8cecc;strokeColor=#b85450;" vertex="1" parent="1">
          <mxGeometry x="2310" y="1720" width="60" height="60" as="geometry" />
        </mxCell>
        <mxCell id="s7MwCBMqRwBZ77ZkNdZO-8" value="0" style="ellipse;whiteSpace=wrap;html=1;aspect=fixed;fontStyle=1;fontSize=20;fillColor=#f8cecc;strokeColor=#b85450;" vertex="1" parent="1">
          <mxGeometry x="2410" y="1720" width="60" height="60" as="geometry" />
        </mxCell>
        <mxCell id="s7MwCBMqRwBZ77ZkNdZO-9" value="x" style="ellipse;whiteSpace=wrap;html=1;aspect=fixed;fontStyle=1;fontSize=20;fillColor=#f8cecc;strokeColor=#b85450;" vertex="1" parent="1">
          <mxGeometry x="2610" y="1720" width="60" height="60" as="geometry" />
        </mxCell>
        <mxCell id="s7MwCBMqRwBZ77ZkNdZO-10" value="y" style="ellipse;whiteSpace=wrap;html=1;aspect=fixed;fontStyle=1;fontSize=20;fillColor=#f8cecc;strokeColor=#b85450;" vertex="1" parent="1">
          <mxGeometry x="2510" y="1720" width="60" height="60" as="geometry" />
        </mxCell>
        <mxCell id="s7MwCBMqRwBZ77ZkNdZO-20" value="순번" style="rounded=0;whiteSpace=wrap;html=1;fontStyle=1;fontSize=17;fillColor=#E6E6E6;" vertex="1" parent="1">
          <mxGeometry x="2880" y="1400" width="80" height="40" as="geometry" />
        </mxCell>
        <mxCell id="s7MwCBMqRwBZ77ZkNdZO-21" value="문법 규칙" style="rounded=0;whiteSpace=wrap;html=1;fontStyle=1;fontSize=17;fillColor=#E6E6E6;" vertex="1" parent="1">
          <mxGeometry x="2960" y="1400" width="280" height="40" as="geometry" />
        </mxCell>
        <mxCell id="s7MwCBMqRwBZ77ZkNdZO-22" value="속성 계산 규칙" style="rounded=0;whiteSpace=wrap;html=1;fontStyle=1;fontSize=17;fillColor=#E6E6E6;" vertex="1" parent="1">
          <mxGeometry x="3240" y="1400" width="280" height="40" as="geometry" />
        </mxCell>
        <mxCell id="s7MwCBMqRwBZ77ZkNdZO-23" value="1" style="rounded=0;whiteSpace=wrap;html=1;fontStyle=1;fontSize=17;fillColor=#E6E6E6;" vertex="1" parent="1">
          <mxGeometry x="2880" y="1440" width="80" height="40" as="geometry" />
        </mxCell>
        <mxCell id="s7MwCBMqRwBZ77ZkNdZO-24" value="2" style="rounded=0;whiteSpace=wrap;html=1;fontStyle=1;fontSize=17;fillColor=#E6E6E6;" vertex="1" parent="1">
          <mxGeometry x="2880" y="1480" width="80" height="40" as="geometry" />
        </mxCell>
        <mxCell id="s7MwCBMqRwBZ77ZkNdZO-25" value="`S -&amp;gt; \epsilon&lt;br style=&quot;font-size: 17px;&quot;&gt;`" style="rounded=0;whiteSpace=wrap;html=1;fontStyle=1;fontSize=17;" vertex="1" parent="1">
          <mxGeometry x="2960" y="1440" width="280" height="40" as="geometry" />
        </mxCell>
        <mxCell id="s7MwCBMqRwBZ77ZkNdZO-26" value="`S -&amp;gt; (S_1)S_2`" style="rounded=0;whiteSpace=wrap;html=1;fontStyle=1;fontSize=17;" vertex="1" parent="1">
          <mxGeometry x="2960" y="1480" width="280" height="40" as="geometry" />
        </mxCell>
        <mxCell id="s7MwCBMqRwBZ77ZkNdZO-27" value="`S.d = 0`" style="rounded=0;whiteSpace=wrap;html=1;fontStyle=1;fontSize=17;" vertex="1" parent="1">
          <mxGeometry x="3240" y="1440" width="280" height="40" as="geometry" />
        </mxCell>
        <mxCell id="s7MwCBMqRwBZ77ZkNdZO-28" value="`S.d = max{S_1.d + 1, S_2.d}`" style="rounded=0;whiteSpace=wrap;html=1;fontStyle=1;fontSize=17;" vertex="1" parent="1">
          <mxGeometry x="3240" y="1480" width="280" height="40" as="geometry" />
        </mxCell>
      </root>
    </mxGraphModel>
  </diagram>
</mxfile>
